{"glyphs":{"0":{"ha":776,"x_min":35,"x_max":742,"o":"m 389 983 q 558 945 490 983 q 666 840 625 907 q 724 681 707 772 q 742 486 742 590 q 731 313 742 394 q 690 168 719 232 q 612 60 661 104 q 486 -1 563 15 l 407 171 q 472 200 444 175 q 517 267 499 225 q 543 364 535 308 q 551 486 551 419 q 542 614 551 556 q 513 714 532 672 q 462 779 493 756 q 389 803 431 803 q 318 779 349 803 q 267 714 288 756 q 235 614 246 672 q 225 486 225 556 q 233 358 225 417 q 261 258 242 300 q 312 192 281 215 q 389 168 343 168 l 389 -11 q 223 27 290 -11 q 114 133 156 65 q 53 291 72 200 q 35 486 35 382 q 52 681 35 590 q 110 840 69 772 q 219 945 151 907 q 389 983 288 983 z "},"1":{"ha":538,"x_min":49,"x_max":489,"o":"m 301 972 l 489 972 l 489 861 l 153 642 l 49 804 l 301 972 m 296 0 l 296 718 l 489 743 l 489 0 l 296 0 z "},"2":{"ha":769,"x_min":49,"x_max":756,"o":"m 756 0 l 50 0 l 50 169 l 756 169 l 756 0 m 386 788 q 295 758 336 788 q 238 681 254 728 l 49 735 q 99 834 65 789 q 176 913 132 879 q 274 965 221 946 q 386 983 328 983 q 528 958 463 983 q 641 890 593 933 q 716 786 689 846 q 743 657 743 726 q 713 540 743 600 q 634 422 683 481 q 522 303 585 363 q 392 189 458 244 l 192 278 q 258 333 221 303 q 335 398 296 364 q 412 468 374 432 q 479 538 450 504 q 526 603 508 572 q 544 657 544 633 q 531 713 544 689 q 496 754 518 738 q 445 779 474 771 q 386 788 417 788 z "},"3":{"ha":756,"x_min":49,"x_max":721,"o":"m 721 972 l 721 797 l 88 797 l 88 972 l 721 972 m 572 617 q 681 497 640 571 q 721 333 721 422 q 694 199 721 263 q 620 90 667 136 q 510 16 574 43 q 376 -11 447 -11 q 267 7 319 -11 q 172 56 215 25 q 97 131 129 88 q 49 226 65 175 l 235 288 q 250 245 239 267 q 278 206 261 224 q 320 178 296 189 q 376 168 344 168 q 442 181 414 168 q 490 217 471 194 q 517 269 508 239 q 526 333 526 300 q 483 437 526 396 q 378 478 440 478 l 281 478 l 279 626 l 463 782 l 663 693 l 572 617 z "},"4":{"ha":810,"x_min":35,"x_max":796,"o":"m 475 556 l 668 556 l 668 369 l 475 467 l 475 556 m 796 350 l 796 172 l 668 172 l 668 0 l 475 0 l 475 172 l 35 172 l 35 349 l 347 972 l 561 972 l 260 350 l 796 350 z "},"5":{"ha":757,"x_min":49,"x_max":722,"o":"m 132 799 l 156 972 l 697 972 l 697 799 l 132 799 m 375 651 q 527 621 463 651 q 635 542 592 590 q 701 435 679 494 q 722 321 722 376 q 697 191 722 251 q 625 86 671 131 q 515 15 579 42 q 375 -11 451 -11 q 269 6 321 -11 q 175 51 218 22 q 99 121 132 81 q 49 210 65 161 l 232 278 q 249 238 239 257 q 275 203 258 218 q 316 178 292 188 q 375 168 340 168 q 438 181 410 168 q 484 213 465 193 q 513 256 503 232 q 524 304 524 281 l 524 321 q 484 422 524 389 q 382 468 444 456 q 242 479 319 481 q 88 478 164 478 l 117 682 l 338 779 l 324 651 l 375 651 z "},"6":{"ha":732,"x_min":35,"x_max":697,"o":"m 449 640 q 548 597 503 626 q 626 525 593 567 q 678 431 660 483 q 697 321 697 379 q 672 192 697 253 q 601 87 646 132 q 495 15 556 42 q 367 -11 435 -11 q 238 15 299 -11 q 133 87 178 42 q 61 192 88 132 q 35 321 35 253 q 53 429 35 378 q 104 521 71 481 l 419 972 l 661 972 l 261 410 q 233 365 243 390 q 222 313 222 340 q 233 256 222 282 q 265 211 244 231 q 311 181 285 192 q 367 169 338 169 q 422 181 396 169 q 467 211 447 192 q 499 256 488 231 q 510 313 510 282 q 481 399 510 361 q 406 451 451 438 l 449 640 l 449 640 z "},"7":{"ha":661,"x_min":14,"x_max":647,"o":"m 14 972 l 647 972 l 647 799 l 14 799 l 14 972 m 36 0 l 429 782 l 613 707 l 253 0 l 36 0 z "},"8":{"ha":742,"x_min":35,"x_max":707,"o":"m 600 538 q 678 435 649 494 q 707 307 707 376 q 689 204 707 253 q 639 115 671 156 q 563 46 607 75 q 468 1 519 17 l 390 169 q 442 184 418 172 q 483 215 465 196 q 511 257 501 233 q 521 307 521 281 q 509 362 521 336 q 477 406 497 388 q 429 436 457 425 q 371 447 401 447 q 313 436 340 447 q 265 406 286 425 q 233 362 244 388 q 221 307 221 336 q 233 252 221 278 q 265 208 244 226 q 313 178 286 189 q 371 168 340 168 l 371 -11 q 240 14 301 -11 q 133 82 179 39 q 61 183 88 125 q 35 307 35 242 q 63 435 35 376 q 140 538 92 494 q 81 707 81 608 q 103 815 81 764 q 165 903 126 865 q 257 962 204 940 q 371 983 310 983 q 484 962 431 983 q 576 903 538 940 q 638 815 615 865 q 661 707 661 764 q 645 615 661 658 q 600 538 629 572 m 371 610 q 447 638 415 610 q 478 707 478 667 q 447 775 478 747 q 371 803 415 803 q 295 775 326 803 q 264 707 264 747 q 295 638 264 667 q 371 610 326 610 z "},"9":{"ha":714,"x_min":35,"x_max":700,"o":"m 368 983 q 497 957 436 983 q 602 885 557 931 q 674 779 647 840 q 700 650 700 718 q 682 542 700 593 q 632 449 664 490 l 314 0 l 75 0 l 475 561 q 501 606 492 581 q 511 658 511 631 q 500 714 511 688 q 469 760 489 740 q 424 792 450 781 q 368 803 397 803 q 311 792 338 803 q 265 760 285 781 q 235 714 246 740 q 224 658 224 688 q 253 571 224 608 q 329 519 282 533 l 285 329 q 185 373 231 343 q 106 445 139 403 q 53 540 72 488 q 35 650 35 592 q 61 779 35 718 q 133 885 88 840 q 238 957 178 931 q 368 983 299 983 z "},"\u0000":{"ha":0,"x_min":0,"x_max":0,"o":""},"\r":{"ha":694,"x_min":0,"x_max":0,"o":""}," ":{"ha":278,"x_min":0,"x_max":0,"o":""},"E":{"ha":749,"x_min":49,"x_max":701,"o":"m 585 388 l 368 388 l 278 569 l 585 569 l 585 388 m 700 972 l 701 810 l 244 810 l 243 161 l 700 161 l 700 0 l 49 0 l 49 972 l 700 972 z "},"F":{"ha":719,"x_min":49,"x_max":706,"o":"m 369 390 l 279 571 l 588 571 l 588 390 l 369 390 m 49 974 l 706 974 l 706 810 l 244 810 l 244 0 l 49 0 l 49 974 z "},"G":{"ha":1050,"x_min":35,"x_max":1015,"o":"m 1010 569 q 1014 528 1013 549 q 1015 486 1015 507 q 978 292 1015 383 q 877 134 942 201 q 724 28 813 67 q 532 -11 635 -11 q 338 28 429 -11 q 180 134 247 67 q 74 292 113 201 q 35 486 35 383 q 74 680 35 589 q 180 838 113 771 q 338 944 247 906 q 532 983 429 983 q 777 919 667 983 q 954 749 888 854 l 792 644 q 685 765 754 719 q 532 810 617 810 q 415 784 469 810 q 321 715 361 758 q 257 612 281 671 q 233 486 233 553 q 257 360 233 419 q 321 258 281 301 q 415 188 361 214 q 532 163 469 163 q 626 179 582 163 q 706 226 671 196 q 766 298 740 257 q 804 389 792 339 l 540 389 l 451 569 l 1010 569 l 1010 569 z "},"H":{"ha":926,"x_min":49,"x_max":878,"o":"m 49 0 l 49 972 l 251 972 l 251 0 l 49 0 m 678 972 l 878 972 l 878 0 l 678 0 l 678 388 l 367 388 l 275 568 l 678 568 l 678 972 z "},"I":{"ha":300,"x_min":49,"x_max":251,"o":"m 49 972 l 251 972 l 251 0 l 49 0 l 49 972 l 49 972 z "},"J":{"ha":636,"x_min":49,"x_max":594,"o":"m 594 972 l 594 792 l 217 792 l 121 972 l 594 972 m 399 764 l 594 657 l 594 324 q 569 199 594 257 q 499 96 543 140 q 396 26 456 51 q 268 0 336 0 l 49 0 l 49 193 l 268 193 q 319 203 296 193 q 361 232 343 214 q 389 274 379 250 q 399 324 399 297 l 399 764 z "},"K":{"ha":861,"x_min":49,"x_max":826,"o":"m 393 242 l 472 460 l 826 0 l 578 0 l 393 242 m 826 972 l 251 226 l 251 0 l 49 0 l 49 972 l 251 972 l 251 546 l 578 972 l 826 972 z "},"L":{"ha":721,"x_min":49,"x_max":700,"o":"m 49 0 l 49 972 l 243 972 l 243 0 l 49 0 m 272 194 l 700 194 l 700 0 l 381 0 l 272 194 z "},"M":{"ha":996,"x_min":49,"x_max":947,"o":"m 797 972 l 947 972 l 947 847 l 499 171 l 244 553 l 244 0 l 49 0 l 49 972 l 199 972 l 499 521 l 797 972 m 751 0 l 751 511 l 947 646 l 947 0 l 751 0 z "},"N":{"ha":926,"x_min":49,"x_max":878,"o":"m 251 972 l 878 69 l 878 0 l 675 0 l 251 611 l 251 0 l 49 0 l 49 972 l 251 972 m 675 972 l 878 972 l 878 244 l 675 390 l 675 972 z "},"O":{"ha":1039,"x_min":35,"x_max":1004,"o":"m 519 985 q 711 945 622 985 q 865 838 800 906 q 967 680 931 771 q 1004 486 1004 589 q 978 319 1004 399 q 903 176 951 240 q 787 67 854 113 q 639 3 719 22 l 542 168 q 648 199 600 172 q 731 269 696 226 q 785 367 765 311 q 804 486 804 424 q 783 610 804 551 q 724 711 761 668 q 634 779 686 754 q 519 804 582 804 q 405 779 457 804 q 315 711 353 754 q 255 610 276 668 q 233 486 233 551 q 255 363 233 421 q 315 261 276 304 q 405 193 353 218 q 519 168 457 168 l 519 -12 q 328 26 417 -12 q 174 133 239 65 q 72 292 108 201 q 35 486 35 383 q 72 680 35 589 q 174 838 108 771 q 328 945 239 906 q 519 985 417 985 z "},"P":{"ha":867,"x_min":49,"x_max":832,"o":"m 488 972 q 621 945 558 972 q 731 872 683 918 q 805 763 778 825 q 832 629 832 700 q 805 496 832 558 q 731 388 778 433 q 621 315 683 342 q 488 288 558 288 l 379 288 l 274 482 l 488 482 q 545 494 518 482 q 592 527 572 506 q 623 578 611 549 q 635 644 635 608 q 623 703 635 675 q 592 754 611 732 q 545 790 572 776 q 488 804 518 804 l 242 804 l 242 0 l 49 0 l 49 972 l 488 972 l 488 972 z "},"Q":{"ha":1068,"x_min":35,"x_max":1019,"o":"m 519 615 q 583 551 544 590 q 667 467 621 513 q 762 372 713 421 q 858 276 811 322 q 947 188 906 229 q 1018 118 989 147 l 1018 -132 l 808 78 q 673 11 746 35 q 519 -12 600 -12 q 327 26 415 -12 q 174 133 239 65 q 72 292 108 201 q 35 486 35 382 q 72 680 35 589 q 174 838 108 771 q 327 944 239 906 q 519 983 415 983 q 715 944 624 983 q 873 838 806 906 q 980 680 940 771 q 1019 486 1019 589 q 1014 413 1019 449 q 997 343 1008 376 l 797 371 q 814 426 808 399 q 819 486 819 454 q 796 610 819 551 q 731 711 772 668 q 636 779 690 754 q 519 804 582 804 q 405 779 457 804 q 315 711 353 754 q 256 610 278 668 q 235 486 235 551 q 256 361 235 419 q 315 259 278 303 q 405 190 353 215 q 519 165 457 165 q 601 178 561 165 q 675 213 640 190 l 519 368 l 519 615 l 519 615 z "},"R":{"ha":868,"x_min":49,"x_max":854,"o":"m 854 0 l 607 0 l 458 183 l 621 289 l 854 0 m 633 319 q 572 297 600 304 q 502 288 543 290 q 401 287 461 286 q 244 288 340 288 l 244 0 l 49 0 l 49 972 l 489 972 q 622 945 560 972 q 730 872 683 918 q 803 762 776 825 q 831 628 831 699 q 776 442 831 524 q 633 319 721 360 m 244 482 l 489 482 q 594 526 551 482 q 638 643 638 569 q 626 702 638 674 q 594 753 614 731 q 547 788 574 775 q 489 801 519 801 l 244 801 l 244 486 l 244 485 l 244 482 z "},"S":{"ha":831,"x_min":35,"x_max":796,"o":"m 489 568 q 612 528 556 550 q 709 474 668 506 q 773 397 750 442 q 796 292 796 353 l 796 288 q 769 165 796 221 q 694 70 742 110 q 581 9 646 31 q 440 -12 517 -12 q 305 5 369 -12 q 188 51 240 22 q 95 115 135 79 q 35 190 56 151 l 197 293 q 250 241 224 264 q 306 202 276 218 q 369 178 335 186 q 446 169 404 169 q 499 175 472 169 q 549 193 526 181 q 585 224 571 206 q 599 271 599 243 q 589 308 599 290 q 556 344 579 326 q 492 377 532 361 q 390 408 451 393 q 256 449 315 426 q 154 505 196 472 q 90 583 113 538 q 68 692 68 629 q 94 815 68 760 q 165 907 119 869 q 273 965 211 944 q 406 985 335 985 q 539 968 479 985 q 646 926 599 951 q 728 867 693 900 q 788 804 764 835 l 628 701 q 515 781 568 758 q 403 804 461 804 q 341 795 367 804 q 299 773 315 786 q 273 743 282 760 q 264 711 264 726 q 278 663 264 683 q 322 626 293 643 q 392 596 350 610 q 489 568 435 582 z "},"T":{"ha":842,"x_min":35,"x_max":807,"o":"m 521 972 l 521 972 l 521 972 l 521 0 l 321 0 l 321 803 l 35 803 l 35 972 l 521 972 m 550 972 l 807 972 l 807 803 l 635 803 l 550 972 z "},"U":{"ha":922,"x_min":42,"x_max":881,"o":"m 239 401 q 256 308 239 351 q 304 231 274 264 q 376 179 335 199 q 463 160 417 160 l 463 -11 q 299 22 375 -11 q 165 111 222 54 q 74 244 107 168 q 42 408 42 321 l 42 972 l 239 972 l 239 408 l 239 406 l 239 401 m 881 972 l 881 408 q 856 269 881 335 q 790 149 832 203 q 689 58 747 96 q 563 1 631 19 l 476 161 q 557 184 519 164 q 623 237 594 204 q 667 312 651 269 q 683 401 683 354 q 683 403 683 403 q 682 406 682 404 q 683 407 682 410 q 683 412 683 404 q 683 445 683 419 q 683 533 683 471 q 683 700 683 594 q 683 972 683 806 l 881 972 z "},"V":{"ha":1036,"x_min":14,"x_max":1022,"o":"m 224 972 l 504 292 l 350 157 l 14 972 l 224 972 m 813 972 l 1022 972 l 624 0 l 415 0 l 813 972 z "},"W":{"ha":1288,"x_min":14,"x_max":1274,"o":"m 1075 972 l 1274 972 l 1036 0 l 782 0 l 643 592 l 507 0 l 304 0 l 544 972 l 544 972 l 743 972 l 744 972 l 910 171 l 1075 972 m 213 972 l 368 335 l 215 142 l 14 972 l 213 972 z "},"X":{"ha":939,"x_min":14,"x_max":925,"o":"m 586 488 l 925 0 l 688 0 l 469 317 l 351 488 l 17 972 l 253 972 l 469 618 l 685 972 l 922 972 l 586 488 m 14 0 l 278 381 l 453 292 l 250 0 l 14 0 z "},"Y":{"ha":933,"x_min":14,"x_max":919,"o":"m 249 972 l 451 564 l 301 439 l 14 972 l 249 972 m 682 972 l 919 972 l 567 322 l 567 0 l 364 0 l 364 322 l 363 325 l 465 535 l 682 972 z "},"Z":{"ha":944,"x_min":49,"x_max":896,"o":"m 49 172 l 888 172 l 888 0 l 49 0 l 49 172 m 83 972 l 896 972 l 896 782 l 332 200 l 160 304 l 640 800 l 83 800 l 83 972 z "},"a":{"ha":843,"x_min":28,"x_max":788,"o":"m 788 694 l 788 0 l 606 0 l 606 347 q 590 422 606 388 q 548 483 575 457 q 485 524 521 510 q 411 539 450 539 q 336 524 371 539 q 274 483 301 508 q 232 422 247 457 q 217 346 217 386 q 232 272 217 307 q 274 211 247 238 q 336 169 301 185 q 411 154 371 154 q 485 169 454 154 l 486 169 l 486 167 l 556 43 l 554 42 q 386 -11 486 -11 q 247 17 313 -11 q 133 93 182 44 q 56 207 85 142 q 28 346 28 272 q 56 486 28 421 q 133 600 85 551 q 247 677 182 649 q 386 706 313 706 q 513 678 458 706 q 606 600 567 651 l 606 694 l 788 694 z "},"b":{"ha":829,"x_min":42,"x_max":801,"o":"m 443 703 q 582 675 517 703 q 696 599 647 647 q 773 485 744 550 q 801 346 801 419 q 773 207 801 272 q 696 93 744 142 q 582 17 647 44 q 443 -11 517 -11 q 225 94 300 -11 l 225 0 l 42 0 l 42 972 l 226 972 l 226 346 q 242 271 226 306 q 283 210 257 236 q 344 169 308 185 q 419 154 379 154 q 494 169 458 154 q 555 210 529 185 q 596 271 581 236 q 611 346 611 306 q 596 421 611 386 q 555 482 581 456 q 494 523 529 508 q 419 538 458 538 q 344 522 382 538 l 343 521 l 342 524 l 274 649 l 275 650 q 443 703 343 703 z "},"c":{"ha":713,"x_min":28,"x_max":699,"o":"m 549 265 l 699 167 l 697 165 q 566 35 649 82 q 388 -12 483 -12 q 247 16 313 -12 q 133 93 182 44 q 56 207 85 142 q 28 346 28 272 q 56 485 28 419 q 133 599 85 550 q 247 676 182 647 q 388 704 313 704 q 566 657 483 704 q 697 526 649 610 l 699 525 l 547 426 l 546 428 q 481 511 524 479 q 388 543 439 543 q 317 527 350 543 q 261 484 285 511 q 224 422 238 457 q 210 346 210 386 q 224 271 210 306 q 261 210 238 236 q 317 170 285 185 q 388 156 350 156 q 481 184 439 156 q 546 264 524 213 l 547 267 l 549 265 z "},"d":{"ha":829,"x_min":28,"x_max":788,"o":"m 788 972 l 788 0 l 603 0 l 604 349 q 588 422 604 388 q 547 483 572 457 q 485 523 521 508 q 410 538 450 538 q 335 523 369 538 q 274 482 300 508 q 233 421 249 456 q 218 346 218 386 q 233 271 218 306 q 274 210 249 236 q 335 169 300 185 q 410 154 369 154 q 449 157 429 154 q 485 168 468 160 l 486 168 l 488 168 l 556 43 l 554 42 q 388 -11 486 -11 q 247 17 313 -11 q 133 93 182 44 q 56 207 85 142 q 28 346 28 272 q 56 485 28 419 q 133 599 85 550 q 247 675 182 647 q 388 703 313 703 q 604 597 529 703 l 604 972 l 788 972 z "},"e":{"ha":775,"x_min":28,"x_max":747,"o":"m 389 706 q 528 677 463 706 q 642 600 593 649 q 719 486 690 551 q 747 346 747 421 q 739 268 747 306 l 738 265 l 385 265 l 296 407 l 560 407 q 495 503 540 465 q 389 540 450 540 q 318 525 351 540 q 260 484 285 510 q 222 423 236 458 q 208 346 208 388 q 221 280 208 314 q 257 218 233 246 q 314 172 281 190 q 389 153 347 153 q 458 163 426 153 q 517 210 489 174 l 518 211 l 521 210 l 682 139 l 679 136 q 552 28 629 67 q 389 -11 475 -11 q 248 17 314 -11 q 133 93 182 44 q 56 207 85 142 q 28 346 28 272 q 56 486 28 421 q 133 600 85 551 q 248 677 182 649 q 389 706 314 706 z "},"f":{"ha":567,"x_min":28,"x_max":539,"o":"m 335 575 l 539 575 l 539 421 l 421 421 l 419 421 l 335 575 m 539 972 l 539 810 l 388 810 q 332 782 351 810 q 313 706 313 754 l 313 0 l 128 0 l 128 421 l 28 421 l 28 575 l 128 575 l 128 714 q 148 814 128 767 q 203 897 168 861 q 286 952 239 932 q 388 972 333 972 l 539 972 z "},"g":{"ha":836,"x_min":28,"x_max":794,"o":"m 794 694 l 794 79 q 760 -66 790 1 q 678 -183 729 -133 q 560 -260 628 -232 q 415 -289 492 -289 q 224 -238 313 -289 q 85 -100 136 -187 l 83 -97 l 85 -96 l 238 -29 q 273 -73 251 -54 q 319 -103 294 -92 q 369 -122 343 -115 q 418 -128 394 -128 q 489 -112 454 -128 q 551 -68 524 -97 q 594 1 578 -39 q 610 92 610 42 l 610 346 q 594 422 610 386 q 551 483 578 457 q 488 524 524 508 q 413 539 453 539 q 337 524 372 539 q 275 483 301 508 q 233 422 249 457 q 218 346 218 386 q 233 271 218 306 q 275 210 249 236 q 337 168 301 183 q 413 153 372 153 q 488 168 456 153 l 489 168 l 490 167 l 560 43 l 558 42 q 390 -14 490 -14 q 249 15 315 -14 q 133 92 182 43 q 56 206 85 140 q 28 346 28 272 q 56 486 28 421 q 133 600 85 551 q 249 677 182 649 q 390 706 315 706 q 610 599 532 706 l 610 694 l 794 694 z "},"h":{"ha":799,"x_min":56,"x_max":757,"o":"m 57 972 l 243 972 l 242 0 l 56 0 l 57 972 m 694 611 q 757 347 757 528 l 757 0 l 571 0 l 571 347 q 569 419 571 385 q 554 481 567 454 q 514 522 542 507 q 435 538 486 538 q 347 515 394 538 l 346 514 l 344 517 l 278 636 l 279 638 q 360 685 315 669 q 457 701 404 701 q 694 611 625 701 z "},"i":{"ha":268,"x_min":42,"x_max":226,"o":"m 42 0 l 42 694 l 226 694 l 226 0 l 42 0 m 42 972 l 226 972 l 226 810 l 42 810 l 42 972 z "},"j":{"ha":461,"x_min":0,"x_max":419,"o":"m 419 972 l 419 810 l 238 810 l 238 972 l 419 972 m 236 694 l 419 694 l 419 -61 q 399 -162 419 -115 q 344 -245 379 -210 q 261 -301 308 -281 q 161 -321 214 -321 l 100 -321 l 100 -319 l 0 -139 l 161 -139 q 215 -116 193 -139 q 236 -61 236 -93 l 236 694 z "},"k":{"ha":781,"x_min":42,"x_max":749,"o":"m 749 694 q 511 458 618 565 l 225 172 l 225 0 l 42 0 l 42 972 l 225 972 l 225 413 l 519 694 l 749 694 m 415 326 q 519 224 479 263 q 583 160 558 185 q 623 120 608 135 q 653 91 638 106 q 688 56 668 76 q 744 0 708 35 l 517 0 l 515 1 l 365 151 l 415 326 z "},"l":{"ha":268,"x_min":42,"x_max":226,"o":"m 43 972 l 226 972 l 226 0 l 42 0 l 43 972 l 43 972 z "},"m":{"ha":1072,"x_min":42,"x_max":1031,"o":"m 42 694 l 226 694 l 226 0 l 42 0 l 42 694 m 794 706 q 905 680 860 706 q 978 613 950 654 q 1018 519 1006 571 q 1031 414 1031 467 l 1031 0 l 846 0 l 847 414 q 839 456 847 436 q 816 490 831 475 q 781 515 801 506 q 739 524 761 524 q 661 491 693 524 q 629 414 629 458 l 629 0 l 444 0 l 444 414 q 436 456 444 436 q 413 490 428 475 q 377 514 397 506 q 332 522 357 522 q 319 543 331 522 q 294 589 308 564 q 257 656 279 618 l 258 658 q 390 706 318 706 q 517 671 468 706 q 592 585 565 636 q 603 601 597 594 q 691 679 642 653 q 794 706 740 706 z "},"n":{"ha":783,"x_min":42,"x_max":749,"o":"m 42 694 l 231 694 l 231 0 l 42 0 l 42 694 m 683 614 q 733 506 718 571 q 749 344 749 440 l 749 0 l 560 0 l 560 344 q 558 419 560 383 q 543 481 556 454 q 503 524 531 508 q 424 539 475 539 q 333 518 375 539 l 333 517 l 332 518 l 264 639 l 265 640 q 446 706 338 706 q 683 614 613 706 z "},"o":{"ha":775,"x_min":28,"x_max":747,"o":"m 388 706 q 528 677 463 706 q 642 600 593 649 q 719 486 690 551 q 747 347 747 421 q 719 208 747 274 q 642 94 690 143 q 528 17 593 46 q 388 -11 463 -11 q 247 17 313 -11 q 133 94 182 46 q 56 208 85 143 q 28 347 28 274 q 56 486 28 421 q 133 600 85 551 q 247 677 182 649 q 388 706 313 706 m 388 154 q 452 169 422 154 q 505 212 482 185 q 541 274 528 239 q 554 351 554 310 q 541 426 554 390 q 505 487 528 461 q 452 528 482 513 q 388 543 422 543 q 322 528 353 543 q 269 487 292 513 q 233 426 246 461 q 219 351 219 390 q 233 274 219 310 q 269 212 246 239 q 322 169 292 185 q 388 154 353 154 z "},"p":{"ha":840,"x_min":42,"x_max":813,"o":"m 449 706 q 590 677 524 706 q 706 599 657 649 q 784 485 756 550 q 813 344 813 419 q 784 201 813 268 q 706 85 756 135 q 590 8 657 36 q 449 -21 524 -21 q 278 35 346 -21 l 278 36 l 347 164 l 349 163 q 425 146 386 146 q 501 161 465 146 q 565 203 538 176 q 607 267 592 231 q 622 344 622 303 q 607 420 622 385 q 565 482 592 456 q 501 524 538 508 q 425 539 465 539 q 348 524 383 539 q 286 482 313 508 q 244 420 260 456 q 229 344 229 385 l 229 -278 l 42 -278 l 42 694 l 229 694 l 229 600 q 449 706 304 706 z "},"q":{"ha":842,"x_min":28,"x_max":800,"o":"m 800 694 l 800 -278 l 613 -278 l 613 85 l 613 344 q 597 420 613 385 q 556 482 582 456 q 494 524 529 508 q 417 539 458 539 q 340 524 376 539 q 277 482 304 508 q 235 420 250 456 q 219 344 219 385 q 235 267 219 303 q 277 203 250 231 q 340 161 304 176 q 417 146 376 146 q 492 161 453 146 l 493 163 l 493 161 l 565 35 l 564 33 q 392 -21 493 -21 q 251 8 317 -21 q 135 85 185 36 q 56 201 85 135 q 28 344 28 268 q 56 485 28 419 q 135 599 85 550 q 251 677 185 649 q 392 706 317 706 q 520 679 464 706 q 613 600 576 653 l 613 694 l 800 694 z "},"r":{"ha":622,"x_min":42,"x_max":608,"o":"m 608 667 l 592 639 l 521 513 l 519 514 q 421 540 474 540 q 353 528 385 540 q 296 495 321 517 q 253 444 271 474 q 231 382 236 415 l 231 0 l 42 0 l 42 694 l 231 694 l 231 604 q 446 706 304 706 q 607 667 529 706 l 608 667 z "},"s":{"ha":622,"x_min":28,"x_max":594,"o":"m 383 413 q 467 381 429 397 q 534 343 506 365 q 578 290 563 321 q 594 215 594 258 l 594 214 q 524 49 594 108 q 328 -11 454 -11 q 172 16 249 -11 q 29 93 96 43 l 28 94 l 29 96 l 124 244 l 125 243 q 219 176 167 199 q 332 153 272 153 q 414 206 414 153 q 388 243 414 231 q 325 267 361 256 q 312 270 318 269 q 299 274 306 271 q 215 298 257 285 q 140 334 174 311 q 85 392 107 357 q 64 483 64 428 l 64 486 q 82 575 64 535 q 133 644 100 615 q 214 690 167 674 q 318 706 261 706 q 453 685 385 706 q 579 626 521 665 l 579 624 l 494 469 l 493 471 q 414 522 461 503 q 314 540 367 540 q 292 539 304 540 q 269 532 279 538 q 251 517 258 526 q 244 492 244 508 q 256 469 244 479 q 284 449 267 458 q 323 432 301 440 q 365 417 344 424 q 374 415 369 417 q 383 413 379 414 z "},"t":{"ha":553,"x_min":28,"x_max":525,"o":"m 525 622 l 525 468 l 422 468 l 336 622 l 525 622 m 313 238 q 335 183 313 206 q 390 161 358 161 l 525 161 l 525 0 l 390 0 q 288 20 336 0 q 205 76 240 40 q 149 158 169 111 q 128 260 128 206 l 128 468 l 28 468 l 28 622 l 128 622 l 128 874 l 313 874 l 313 238 z "},"u":{"ha":786,"x_min":35,"x_max":744,"o":"m 744 694 l 744 -4 l 554 -4 l 554 694 l 744 694 m 453 175 l 519 54 l 519 53 q 340 -11 447 -11 q 100 81 171 -11 q 35 342 35 163 l 35 694 l 225 694 l 225 342 q 227 269 225 304 q 242 208 229 235 q 283 166 256 182 q 363 150 311 150 q 408 157 386 150 q 450 175 431 164 l 453 175 z "},"v":{"ha":804,"x_min":14,"x_max":790,"o":"m 213 693 l 392 190 l 269 64 l 14 694 l 213 694 l 213 693 m 593 694 l 790 694 l 506 0 l 344 0 l 401 160 l 593 694 z "},"w":{"ha":1025,"x_min":14,"x_max":1011,"o":"m 819 694 l 1011 694 l 1010 693 l 824 0 l 603 0 l 513 411 l 419 0 l 276 0 l 276 3 l 415 694 l 417 694 l 607 694 l 607 694 l 713 168 l 819 694 m 207 693 l 303 204 l 181 78 l 179 81 l 14 694 l 207 694 l 207 693 z "},"x":{"ha":764,"x_min":14,"x_max":750,"o":"m 14 0 l 200 253 l 369 175 l 240 0 l 14 0 m 494 344 l 750 0 l 522 0 l 522 1 l 269 343 l 15 694 l 240 694 l 381 458 l 522 694 l 750 694 l 747 693 l 494 344 z "},"y":{"ha":803,"x_min":14,"x_max":789,"o":"m 257 94 l 14 694 l 213 694 l 213 693 l 392 189 l 257 94 m 789 694 l 788 692 q 742 567 764 628 q 700 454 719 507 q 576 120 631 260 q 458 -107 521 -19 q 317 -237 396 -197 q 121 -278 239 -278 l 118 -278 l 118 -89 l 121 -89 q 185 -86 157 -89 q 238 -74 214 -83 q 281 -49 261 -65 q 319 -7 301 -33 q 356 54 338 18 q 393 140 374 90 q 436 256 413 190 q 489 406 460 322 q 536 539 511 468 q 590 693 561 610 l 590 694 l 789 694 z "},"z":{"ha":769,"x_min":28,"x_max":742,"o":"m 29 164 l 721 164 l 721 0 l 28 0 l 29 164 m 742 694 l 742 514 l 740 515 l 346 185 l 147 269 l 474 544 l 49 544 l 49 694 l 742 694 z "},"À":{"ha":1076,"x_min":35,"x_max":1042,"o":"m 761 174 l 314 174 l 243 0 l 35 0 l 432 972 l 642 972 l 385 347 l 690 347 l 546 693 l 697 838 l 1042 0 l 831 0 l 761 174 m 514 1069 l 413 1231 l 596 1231 l 663 1069 l 514 1069 z "},"A":{"ha":1076,"x_min":35,"x_max":1042,"o":"m 833 0 l 761 172 l 317 172 l 243 0 l 35 0 l 433 972 l 643 972 l 386 346 l 690 346 l 553 679 l 710 814 l 1042 0 l 833 0 l 833 0 z "},"B":{"ha":918,"x_min":49,"x_max":883,"o":"m 767 524 q 851 424 819 485 q 883 293 883 364 q 860 179 883 232 q 798 86 838 126 q 705 23 758 46 q 592 0 651 0 l 388 0 l 297 169 l 594 169 q 631 180 614 169 q 661 206 649 190 q 681 240 674 221 q 689 279 689 260 q 681 320 689 300 q 660 356 674 340 q 628 381 646 371 q 592 390 611 390 l 243 390 l 243 0 l 49 0 l 49 974 l 522 974 q 635 951 582 974 q 728 888 689 928 q 791 795 768 849 q 814 682 814 742 q 801 598 814 638 q 767 524 789 558 m 522 583 q 559 592 542 583 q 590 616 576 601 q 612 651 604 631 q 619 693 619 671 q 612 735 619 715 q 590 771 604 756 q 559 795 576 786 q 522 804 542 804 l 243 804 l 243 583 l 522 583 z "},"C":{"ha":990,"x_min":35,"x_max":956,"o":"m 956 224 q 877 128 922 171 q 778 53 832 85 q 661 6 724 22 q 532 -11 599 -11 q 338 28 429 -11 q 180 134 247 67 q 74 292 113 201 q 35 486 35 383 q 74 680 35 589 q 180 838 113 771 q 338 944 247 906 q 532 983 429 983 q 661 967 599 983 q 778 919 724 950 q 877 844 832 888 q 956 749 922 801 l 793 644 q 686 765 754 719 q 532 810 618 810 q 417 784 471 810 q 322 715 363 758 q 258 612 282 671 q 235 486 235 553 q 258 360 235 419 q 322 258 282 301 q 417 188 363 214 q 532 163 471 163 q 686 208 618 163 q 793 328 754 253 l 956 224 z "},"D":{"ha":986,"x_min":49,"x_max":951,"o":"m 465 972 q 654 934 565 972 q 809 830 743 896 q 913 675 875 764 q 951 486 951 586 q 913 297 951 386 q 809 142 875 208 q 654 38 743 76 q 465 0 565 0 l 385 0 l 293 169 l 465 169 q 578 193 525 169 q 672 259 632 217 q 734 360 711 301 q 757 486 757 418 q 734 611 757 553 q 672 712 711 669 q 578 778 632 754 q 465 803 525 803 l 243 803 l 243 0 l 49 0 l 49 972 l 465 972 l 465 972 z "},":":{"ha":304,"x_min":42,"x_max":263,"o":"m 154 211 q 196 202 176 211 q 230 178 215 193 q 253 142 244 163 q 261 100 261 122 q 228 22 261 54 q 151 -10 196 -10 q 74 24 106 -8 q 42 103 42 57 q 75 179 42 147 q 154 211 108 211 m 151 485 q 74 519 106 486 q 42 596 42 551 q 75 674 42 642 q 154 706 108 706 q 231 672 199 706 q 261 593 263 639 q 228 517 261 549 q 151 485 196 485 z "},";":{"ha":347,"x_min":42,"x_max":306,"o":"m 190 481 q 112 513 144 481 q 81 593 79 546 q 113 673 81 640 q 193 706 146 706 q 272 672 239 704 q 306 592 306 639 q 271 513 304 544 q 190 481 238 481 m 99 160 l 286 160 l 161 -165 l 42 -165 l 99 160 z "},"<":{"ha":421,"x_min":42,"x_max":379,"o":"m 100 335 l 175 428 l 379 301 l 379 161 l 100 335 m 42 493 l 379 706 l 379 565 l 190 446 l 190 446 l 42 371 l 42 493 z "},"=":{"ha":736,"x_min":42,"x_max":694,"o":"m 42 694 l 694 694 l 694 576 l 42 576 l 42 694 m 42 336 l 42 456 l 694 456 l 694 336 l 42 336 z "},">":{"ha":421,"x_min":42,"x_max":379,"o":"m 321 335 l 42 161 l 42 301 l 246 428 l 321 335 m 379 493 l 379 371 l 231 446 l 231 446 l 42 565 l 42 706 l 379 493 z "},"?":{"ha":771,"x_min":42,"x_max":729,"o":"m 375 211 q 453 178 421 210 q 485 100 485 146 q 451 22 483 54 q 374 -10 419 -11 q 296 23 328 -10 q 264 101 264 56 q 297 179 264 147 q 375 211 329 211 m 422 983 q 647 907 565 983 q 729 692 729 831 l 729 689 q 710 588 729 628 q 661 519 690 549 q 599 467 632 490 q 536 419 565 444 q 488 360 507 394 q 468 276 468 326 l 272 276 q 271 290 271 281 l 271 293 q 292 410 271 365 q 343 485 313 456 q 410 535 374 515 q 476 578 446 556 q 528 631 507 600 q 549 711 549 661 q 517 776 549 750 q 434 805 485 801 q 322 784 383 808 q 201 700 260 760 l 42 803 q 102 866 67 833 q 184 924 138 899 q 290 967 231 950 q 422 983 350 983 z "},"@":{"ha":1050,"x_min":42,"x_max":1008,"o":"m 525 808 q 713 770 625 808 q 867 667 801 732 q 970 513 932 601 q 1008 325 1008 425 q 990 171 1008 231 q 944 78 972 111 q 880 33 915 44 q 810 21 844 21 q 664 96 713 21 q 615 326 615 171 q 606 372 615 350 q 580 409 596 393 q 542 435 564 425 q 496 444 521 444 q 449 435 471 444 q 410 409 426 425 q 384 372 393 393 q 375 325 375 350 q 384 278 375 300 q 410 241 393 257 q 449 215 426 225 q 496 206 471 206 q 540 215 519 206 l 542 215 l 542 214 l 585 136 l 583 136 q 479 104 543 104 q 393 122 433 104 q 322 169 353 139 q 274 239 292 199 q 257 325 257 279 q 274 411 257 371 q 322 481 292 451 q 393 528 353 511 q 479 546 433 546 q 615 482 568 546 l 615 546 l 729 546 q 727 386 726 454 q 731 265 728 318 q 742 163 735 203 q 761 101 750 124 q 787 71 772 79 q 818 63 801 63 q 912 109 878 63 q 958 223 946 156 q 961 365 969 290 q 929 496 953 440 q 863 606 904 556 q 769 690 822 656 q 654 744 717 725 q 525 764 592 764 q 353 729 433 764 q 215 635 274 694 q 121 497 156 576 q 86 325 86 417 q 121 153 86 233 q 215 14 156 74 q 355 -81 275 -46 q 525 -115 435 -115 q 620 -106 569 -115 q 711 -79 671 -97 l 711 -128 q 619 -151 669 -143 q 525 -158 569 -158 q 337 -120 425 -158 q 183 -16 249 -82 q 80 138 118 50 q 42 325 42 225 q 79 513 42 425 q 183 666 117 600 q 337 770 249 732 q 525 808 425 808 z "},"[":{"ha":383,"x_min":42,"x_max":342,"o":"m 342 -76 l 42 -76 l 42 1046 l 342 1046 l 342 871 l 217 871 l 217 99 l 342 99 l 342 -76 l 342 -76 z "},"]":{"ha":383,"x_min":42,"x_max":342,"o":"m 42 99 l 167 99 l 167 871 l 42 871 l 42 1046 l 342 1046 l 342 -76 l 42 -76 l 42 99 z "},"\\":{"ha":724,"x_min":42,"x_max":682,"o":"m 592 -83 l 42 1067 l 132 1067 l 682 -83 l 592 -83 l 592 -83 z "},"^":{"ha":774,"x_min":42,"x_max":732,"o":"m 249 492 l 42 492 l 281 972 l 285 972 l 489 972 l 492 972 l 732 492 l 525 492 l 389 806 l 249 492 l 249 492 z "},"_":{"ha":619,"x_min":42,"x_max":578,"o":"m 578 -197 l 42 -197 l 42 -100 l 578 -100 l 578 -197 l 578 -197 z "},"`":{"ha":317,"x_min":42,"x_max":275,"o":"m 275 824 l 136 824 l 42 971 l 214 971 l 275 824 l 275 824 z "},"!":{"ha":313,"x_min":42,"x_max":271,"o":"m 157 210 q 235 176 203 208 q 267 99 267 144 q 233 22 265 54 q 156 -10 201 -11 q 78 23 111 -10 q 46 100 46 56 q 79 178 46 146 q 157 210 113 210 m 271 972 l 271 556 l 215 275 l 97 275 l 42 556 l 42 972 l 271 972 z "},"\"":{"ha":588,"x_min":42,"x_max":546,"o":"m 103 972 l 308 972 l 171 618 l 42 618 l 103 972 m 338 972 l 546 972 l 407 618 l 276 618 l 338 972 z "},"#":{"ha":874,"x_min":42,"x_max":832,"o":"m 435 119 l 465 303 l 572 256 l 550 119 l 435 119 m 813 543 l 619 543 l 600 429 l 796 429 l 776 314 l 767 314 l 582 314 l 467 314 l 440 314 l 353 314 l 319 119 l 206 119 l 236 314 l 42 314 l 61 429 l 256 429 l 272 533 l 378 485 l 371 429 l 486 429 l 504 543 l 438 543 l 438 543 l 246 543 l 246 543 l 78 543 l 97 660 l 294 660 l 325 854 l 440 854 l 408 660 l 522 660 l 554 854 l 668 854 l 638 660 l 832 660 l 813 543 z "},"$":{"ha":824,"x_min":35,"x_max":789,"o":"m 483 571 q 606 531 550 553 q 703 478 663 510 q 766 402 743 446 q 789 296 789 358 l 789 294 q 768 184 789 235 q 710 95 747 133 q 619 32 672 57 q 504 -1 567 7 l 504 -122 l 319 -122 l 319 8 q 224 38 269 18 q 142 82 179 57 q 78 136 106 107 q 35 194 50 165 l 196 299 q 303 207 247 240 q 442 174 358 174 q 496 179 468 174 q 545 197 524 185 q 581 228 567 210 q 594 275 594 247 q 585 313 594 294 q 551 347 575 331 q 488 379 528 364 q 386 410 447 394 q 251 453 311 429 q 151 509 192 476 q 90 586 111 542 q 68 692 68 631 l 68 694 q 87 799 68 751 q 139 883 106 847 q 218 943 172 919 q 319 976 264 967 l 319 1101 l 504 1101 l 504 974 q 675 906 607 954 q 782 806 743 857 l 624 703 q 511 781 564 758 q 401 804 458 804 q 340 795 365 804 q 297 773 314 786 q 272 744 281 760 q 264 714 264 728 q 276 666 263 686 q 319 629 290 646 q 389 599 347 613 q 483 571 431 585 z "},"%":{"ha":908,"x_min":42,"x_max":867,"o":"m 786 796 l 185 121 l 124 178 l 725 853 l 786 796 m 442 785 q 426 706 442 743 q 383 642 410 669 q 319 600 356 615 q 242 585 283 585 q 164 600 200 585 q 101 642 128 615 q 58 706 74 669 q 42 785 42 743 q 58 861 42 825 q 101 924 74 897 q 164 967 128 951 q 242 983 200 983 q 319 967 283 983 q 383 924 356 951 q 426 861 410 897 q 442 785 442 825 m 167 785 q 188 730 167 753 q 242 707 210 707 q 296 730 274 707 q 318 785 318 753 q 296 838 318 815 q 242 860 274 860 q 188 838 210 860 q 167 785 167 815 m 667 389 q 744 373 708 389 q 808 330 781 357 q 851 267 835 303 q 867 189 867 231 q 851 111 867 147 q 808 48 835 75 q 744 5 781 21 q 667 -11 708 -11 q 588 5 625 -11 q 524 48 551 21 q 482 111 497 75 q 467 189 467 147 q 482 267 467 231 q 524 330 497 303 q 588 373 551 357 q 667 389 625 389 m 667 114 q 720 135 699 114 q 742 189 742 157 q 720 243 742 221 q 667 265 699 265 q 613 243 635 265 q 592 189 592 221 q 613 135 592 157 q 667 114 635 114 z "},"&":{"ha":869,"x_min":42,"x_max":828,"o":"m 828 126 l 689 -12 l 613 65 l 471 206 l 285 393 l 274 383 q 236 303 236 350 q 249 253 236 276 q 281 211 261 229 q 328 183 301 193 q 385 172 356 172 q 421 174 401 172 q 458 181 440 175 l 510 13 q 448 -3 479 3 q 385 -8 417 -8 q 253 17 315 -8 q 144 84 190 42 q 69 183 97 126 q 42 303 42 240 q 67 424 42 367 q 142 526 93 482 l 149 532 q 103 613 119 569 q 86 703 86 656 q 110 813 86 761 q 176 904 133 864 q 273 965 219 944 q 385 985 326 985 q 478 972 436 985 q 553 938 519 958 q 615 890 588 917 q 664 838 642 864 l 507 718 q 454 779 483 751 q 385 807 425 807 q 311 776 340 807 q 282 703 282 744 q 310 643 282 667 l 311 640 l 563 390 l 563 531 q 601 541 578 535 q 651 555 625 547 q 706 570 678 563 q 757 585 733 578 l 757 303 q 752 258 757 279 q 739 213 747 236 l 828 126 z "},"'":{"ha":354,"x_min":42,"x_max":313,"o":"m 104 972 l 313 972 l 172 615 l 42 615 l 104 972 l 104 972 z "},"(":{"ha":499,"x_min":42,"x_max":457,"o":"m 225 -89 q 88 182 133 33 q 42 485 42 331 q 88 788 42 639 q 226 1061 135 938 l 457 1061 l 401 993 q 301 840 342 924 q 241 667 261 757 q 221 484 221 578 q 241 301 221 390 q 301 129 261 211 q 400 -21 340 47 l 457 -89 l 225 -89 z "},")":{"ha":499,"x_min":42,"x_max":457,"o":"m 42 -89 l 99 -21 q 198 129 158 47 q 258 301 238 211 q 278 484 278 390 q 258 667 278 578 q 197 840 238 757 q 97 993 157 924 l 42 1061 l 272 1061 q 410 788 364 938 q 457 485 457 639 q 411 182 457 331 q 274 -89 365 33 l 42 -89 z "},"*":{"ha":449,"x_min":42,"x_max":407,"o":"m 274 986 l 358 939 l 285 839 l 407 851 l 407 756 l 285 769 l 358 669 l 274 621 l 225 735 l 175 621 l 92 669 l 165 769 l 42 756 l 42 851 l 165 839 l 92 939 l 175 986 l 225 872 l 274 986 l 274 986 z "},"+":{"ha":544,"x_min":42,"x_max":503,"o":"m 503 589 l 503 471 l 331 471 l 331 300 l 213 300 l 213 471 l 42 471 l 42 589 l 213 589 l 213 761 l 331 761 l 331 589 l 503 589 l 503 589 z "},",":{"ha":296,"x_min":14,"x_max":254,"o":"m 69 161 l 254 161 l 131 -156 l 14 -156 l 69 161 l 69 161 z "},"-":{"ha":540,"x_min":42,"x_max":499,"o":"m 499 367 l 42 367 l 42 483 l 499 483 l 499 367 l 499 367 z "},".":{"ha":304,"x_min":42,"x_max":263,"o":"m 153 207 q 231 175 199 207 q 261 97 263 143 q 228 19 261 51 q 150 -12 196 -12 q 74 21 106 -11 q 43 100 42 53 q 75 176 43 144 q 153 207 107 208 z "},"/":{"ha":724,"x_min":42,"x_max":682,"o":"m 132 -83 l 42 -83 l 592 1067 l 682 1067 l 132 -83 z "},"{":{"ha":476,"x_min":42,"x_max":435,"o":"m 328 656 q 310 561 328 606 q 264 482 293 517 q 310 403 293 449 q 328 308 328 358 l 328 199 q 360 122 328 154 q 435 90 392 90 l 435 -83 q 326 -61 376 -83 q 237 -1 275 -39 q 176 89 199 38 q 154 199 154 140 l 154 308 q 128 368 154 343 q 67 393 103 393 l 42 393 l 42 571 l 67 571 q 128 595 103 571 q 154 656 154 619 l 154 764 q 176 874 154 822 q 237 965 199 926 q 326 1025 275 1003 q 435 1047 376 1047 l 435 872 q 394 864 414 872 q 360 841 375 856 q 337 806 346 826 q 328 764 328 786 l 328 656 z "},"}":{"ha":476,"x_min":42,"x_max":435,"o":"m 149 764 q 140 806 149 786 q 116 841 131 826 q 82 864 101 856 q 42 872 63 872 l 42 1047 q 151 1025 100 1047 q 240 965 201 1003 q 300 874 278 926 q 322 764 322 822 l 322 656 q 348 595 322 619 q 410 571 374 571 l 435 571 l 435 393 l 410 393 q 348 368 374 393 q 322 308 322 343 l 322 199 q 300 89 322 140 q 240 -1 278 38 q 151 -61 201 -39 q 42 -83 100 -83 l 42 90 q 117 122 85 90 q 149 199 149 154 l 149 308 q 166 403 149 358 q 213 482 183 449 q 166 561 183 517 q 149 656 149 606 l 149 764 z "},"|":{"ha":231,"x_min":42,"x_max":189,"o":"m 42 -97 l 42 1063 l 189 1063 l 189 -97 l 42 -97 l 42 -97 z "},"~":{"ha":794,"x_min":42,"x_max":753,"o":"m 578 383 q 471 406 524 383 q 375 451 418 429 q 293 492 325 478 q 240 508 261 506 q 204 499 218 510 q 179 468 190 489 l 150 415 l 42 475 l 72 529 q 153 614 107 593 q 250 630 200 635 q 347 603 300 625 q 432 563 394 582 q 510 524 479 538 q 560 507 540 510 q 593 511 581 504 q 617 533 606 518 l 651 585 l 753 515 l 718 464 q 653 401 688 419 q 578 383 618 383 z "},"€":{"ha":1022,"x_min":42,"x_max":981,"o":"m 981 224 q 908 127 947 171 q 823 52 869 83 q 721 4 776 21 q 599 -12 665 -12 q 445 13 515 -12 q 319 85 375 39 q 223 195 263 132 q 163 333 183 258 l 42 333 l 42 444 l 144 444 q 143 465 143 454 q 143 486 143 475 q 143 506 143 496 q 144 528 143 517 l 42 528 l 42 639 l 163 639 q 223 777 183 714 q 319 886 263 840 q 445 958 375 932 q 599 983 515 983 q 721 967 665 983 q 823 919 776 950 q 908 844 869 888 q 981 747 947 800 l 818 643 q 778 712 799 681 q 731 765 757 743 q 672 799 704 786 q 599 811 640 811 q 454 763 513 811 q 368 639 396 715 l 649 639 l 649 528 l 343 528 q 342 507 343 518 q 342 486 342 496 q 342 465 342 475 q 343 444 343 454 l 649 444 l 649 333 l 368 333 q 454 209 396 256 q 599 163 513 163 q 672 174 640 163 q 731 208 704 186 q 778 260 757 229 q 818 328 799 290 l 981 224 z "},"Á":{"ha":1078,"x_min":35,"x_max":1043,"o":"m 835 0 l 763 175 l 318 175 l 247 0 l 35 0 l 435 975 l 644 975 l 388 347 l 692 347 l 550 694 l 700 840 l 1043 0 l 835 0 m 689 1235 l 588 1074 l 436 1074 l 503 1235 l 689 1235 z "},"Â":{"ha":1078,"x_min":35,"x_max":1043,"o":"m 490 1258 l 589 1258 l 590 1258 l 707 1071 l 589 1071 l 542 1164 l 490 1071 l 371 1071 l 488 1258 l 490 1258 m 833 0 l 1043 0 l 699 839 l 549 694 l 692 346 l 386 346 q 423 435 401 382 q 469 547 444 488 q 520 670 494 607 q 569 791 546 733 q 613 896 593 849 q 644 972 632 943 l 435 972 l 35 0 l 244 0 l 315 174 l 763 174 l 833 0 z "},"Ã":{"ha":1076,"x_min":35,"x_max":1042,"o":"m 761 172 l 315 172 l 244 0 l 35 0 l 433 972 l 643 972 q 611 895 631 943 q 568 790 592 847 q 519 670 544 733 q 469 547 493 607 q 423 435 444 488 q 386 346 401 382 l 690 346 l 547 694 l 697 839 l 1042 0 l 832 0 l 761 172 m 358 1081 l 279 1126 l 303 1167 q 362 1232 328 1217 q 432 1244 396 1247 q 502 1224 468 1240 q 564 1192 536 1207 q 620 1163 597 1174 q 658 1151 643 1153 q 681 1153 672 1149 q 697 1171 690 1158 l 721 1210 l 797 1158 l 771 1119 q 723 1070 749 1083 q 669 1057 697 1057 q 592 1074 629 1057 q 522 1110 554 1092 q 463 1140 486 1129 q 424 1151 439 1150 q 399 1145 408 1153 q 381 1122 389 1138 l 358 1081 z "},"Ä":{"ha":1076,"x_min":35,"x_max":1042,"o":"m 763 174 l 317 174 l 246 0 l 35 0 l 433 972 l 644 972 l 386 346 l 690 346 l 547 694 l 699 839 l 1042 0 l 833 0 l 763 174 m 407 1067 q 349 1092 372 1067 q 325 1151 325 1117 q 349 1212 325 1188 q 408 1236 374 1236 q 469 1211 444 1236 q 493 1151 493 1186 q 467 1091 492 1115 q 407 1067 443 1067 m 668 1067 q 609 1092 633 1067 q 585 1151 585 1117 q 610 1212 585 1188 q 669 1236 635 1236 q 730 1211 706 1236 q 753 1151 754 1186 q 728 1091 753 1115 q 668 1067 704 1067 z "},"Å":{"ha":1050,"x_min":35,"x_max":1015,"o":"m 743 168 l 308 168 l 239 0 l 35 0 l 424 947 l 426 947 q 395 994 407 967 q 383 1050 383 1021 q 394 1106 383 1079 q 426 1153 406 1133 q 472 1184 446 1172 q 528 1196 499 1196 q 585 1184 558 1196 q 631 1153 611 1172 q 662 1106 650 1133 q 674 1050 674 1079 q 625 942 674 986 l 378 338 l 672 338 l 533 675 l 681 815 l 1015 0 l 810 0 l 743 168 m 528 1110 q 487 1092 504 1110 q 469 1050 469 1074 q 487 1008 469 1026 q 528 990 504 990 q 569 1008 551 990 q 588 1050 588 1026 q 569 1092 588 1074 q 528 1110 551 1110 z "},"Æ":{"ha":1426,"x_min":35,"x_max":1392,"o":"m 1276 569 l 1276 389 l 1044 389 l 957 569 l 1276 569 m 835 972 l 1392 972 l 1392 778 l 835 778 l 835 972 m 699 839 l 964 194 l 1392 194 l 1392 0 l 1042 0 l 1042 0 l 833 0 l 763 172 l 315 172 l 244 0 l 35 0 l 435 972 l 644 972 l 388 347 l 692 347 l 549 696 l 699 839 z "},"È":{"ha":736,"x_min":42,"x_max":694,"o":"m 578 392 l 347 392 l 258 568 l 578 568 l 578 392 m 694 972 l 694 778 l 236 778 l 236 194 l 694 194 l 694 0 l 236 0 l 236 0 l 42 0 l 42 972 l 133 972 l 236 972 l 694 972 m 494 1071 l 343 1071 l 243 1232 l 428 1232 l 494 1071 z "},"É":{"ha":736,"x_min":42,"x_max":694,"o":"m 579 390 l 347 390 l 258 569 l 579 569 l 579 390 m 694 972 l 694 778 l 236 778 l 236 194 l 694 194 l 694 0 l 236 0 l 236 0 l 42 0 l 42 972 l 136 972 l 236 972 l 694 972 m 494 1232 l 393 1072 l 242 1072 l 308 1232 l 494 1232 z "},"Ê":{"ha":736,"x_min":42,"x_max":694,"o":"m 578 388 l 346 388 l 258 568 l 578 568 l 578 388 m 694 971 l 694 778 l 236 778 l 236 194 l 694 194 l 694 0 l 236 0 l 236 0 l 42 0 l 42 971 l 135 971 l 236 971 l 694 971 m 369 1164 l 318 1071 l 199 1071 l 315 1257 l 318 1257 l 417 1257 l 418 1257 l 536 1071 l 417 1071 l 369 1164 z "},"Š":{"ha":843,"x_min":42,"x_max":801,"o":"m 494 568 q 617 529 561 551 q 715 475 674 507 q 778 399 756 443 q 801 292 801 354 l 801 289 q 774 167 801 222 q 700 72 747 111 q 588 10 653 32 q 447 -11 524 -11 q 312 6 376 -11 q 194 51 247 24 q 101 116 140 79 q 42 192 63 153 l 204 294 q 256 244 231 267 q 311 204 282 221 q 375 178 340 188 q 451 169 410 169 q 506 175 478 169 q 556 193 533 181 q 592 224 578 206 q 606 271 606 243 q 596 308 606 290 q 562 344 586 326 q 497 377 538 361 q 396 408 457 393 q 261 449 321 426 q 160 505 201 472 q 97 582 118 538 q 75 689 75 626 l 75 692 q 101 814 75 760 q 172 906 126 868 q 278 963 217 943 q 413 983 340 983 q 546 967 486 983 q 652 924 606 950 q 733 867 699 899 q 792 804 768 835 l 633 700 q 522 779 575 756 q 410 803 468 803 q 348 794 374 803 q 306 772 322 786 q 281 742 289 758 q 272 711 272 726 q 285 663 271 683 q 328 626 300 642 q 399 596 357 610 q 494 568 440 582 m 369 1071 l 253 1260 l 372 1260 l 422 1165 l 471 1260 l 589 1260 l 474 1071 l 471 1071 l 372 1071 l 369 1071 z "},"Ë":{"ha":735,"x_min":42,"x_max":693,"o":"m 347 389 l 258 568 l 578 568 l 578 389 l 347 389 m 693 776 l 236 776 l 236 194 l 693 194 l 693 0 l 236 0 l 42 0 l 42 969 l 135 969 l 236 969 l 693 969 l 693 776 m 236 1064 q 177 1090 201 1065 q 153 1150 153 1114 q 178 1209 153 1185 q 238 1233 203 1233 q 298 1208 274 1233 q 322 1149 322 1183 q 297 1088 321 1113 q 236 1064 272 1064 m 496 1064 q 437 1090 461 1065 q 413 1150 413 1114 q 438 1209 413 1185 q 497 1233 463 1233 q 558 1208 533 1233 q 582 1149 582 1183 q 556 1088 581 1113 q 496 1064 532 1064 z "},"‚":{"ha":324,"x_min":42,"x_max":282,"o":"m 282 161 l 158 -156 l 42 -156 l 97 161 l 282 161 z "},"…":{"ha":968,"x_min":42,"x_max":926,"o":"m 153 207 q 231 175 199 207 q 261 97 263 143 q 228 19 261 51 q 150 -12 196 -12 q 74 21 106 -11 q 43 100 42 53 q 75 176 43 144 q 153 207 107 208 m 485 207 q 563 175 531 207 q 593 97 594 143 q 560 19 593 51 q 482 -12 528 -12 q 406 21 438 -11 q 375 100 374 53 q 407 176 375 144 q 485 207 439 208 m 817 207 q 894 175 863 207 q 925 97 926 143 q 892 19 925 51 q 814 -12 860 -12 q 738 21 769 -11 q 707 100 706 53 q 739 176 707 144 q 817 207 771 208 z "},"‰":{"ha":1360,"x_min":42,"x_max":1318,"o":"m 786 796 l 183 121 l 122 178 l 724 851 l 786 796 m 442 783 q 426 706 442 742 q 383 642 410 669 q 319 599 356 615 q 242 583 283 583 q 163 599 200 583 q 99 642 126 615 q 57 706 72 669 q 42 783 42 742 q 57 861 42 825 q 99 924 72 897 q 163 967 126 951 q 242 983 200 983 q 319 967 283 983 q 383 924 356 951 q 426 861 410 897 q 442 783 442 825 m 168 783 q 189 729 168 751 q 242 707 210 707 q 296 729 274 707 q 318 783 318 751 q 296 836 318 815 q 242 857 274 857 q 189 836 210 857 q 168 783 168 815 m 667 389 q 744 373 708 389 q 808 330 781 357 q 851 267 835 303 q 867 189 867 231 q 851 111 867 147 q 808 48 835 75 q 744 5 781 21 q 667 -11 708 -11 q 588 5 625 -11 q 524 48 551 21 q 482 111 497 75 q 467 189 467 147 q 482 267 467 231 q 524 330 497 303 q 588 373 551 357 q 667 389 625 389 m 667 115 q 719 136 697 115 q 740 189 740 157 q 719 243 740 221 q 667 265 697 265 q 613 243 635 265 q 590 189 590 221 q 613 136 590 157 q 667 115 635 115 m 1119 389 q 1196 373 1160 389 q 1259 330 1232 357 q 1302 267 1286 303 q 1318 189 1318 231 q 1302 111 1318 147 q 1259 48 1286 75 q 1196 5 1232 21 q 1119 -11 1160 -11 q 1041 5 1078 -11 q 977 48 1004 21 q 934 111 950 75 q 918 189 918 147 q 934 267 918 231 q 977 330 950 303 q 1041 373 1004 357 q 1119 389 1078 389 m 1119 115 q 1171 136 1149 115 q 1193 189 1193 157 q 1171 243 1193 221 q 1119 265 1149 265 q 1065 243 1088 265 q 1043 189 1043 221 q 1065 136 1043 157 q 1119 115 1088 115 z "},"Ì":{"ha":349,"x_min":42,"x_max":307,"o":"m 107 972 l 307 972 l 307 0 l 107 0 l 107 972 m 293 1071 l 143 1071 l 42 1231 l 226 1231 l 293 1071 z "},"Í":{"ha":363,"x_min":42,"x_max":321,"o":"m 42 0 l 42 972 l 242 972 l 242 0 l 42 0 m 321 1231 l 219 1071 l 69 1071 l 136 1231 l 321 1231 z "},"Î":{"ha":418,"x_min":42,"x_max":376,"o":"m 108 0 l 108 972 l 311 972 l 311 0 l 108 0 m 211 1161 l 161 1067 l 42 1067 l 158 1254 l 161 1254 l 258 1254 l 260 1254 l 376 1067 l 258 1067 l 211 1161 z "},"Ï":{"ha":511,"x_min":42,"x_max":469,"o":"m 157 972 l 357 972 l 357 0 l 157 0 l 157 972 m 210 1150 q 185 1091 210 1115 q 126 1067 160 1067 q 66 1092 90 1067 q 43 1150 42 1117 q 67 1210 43 1186 q 128 1235 92 1235 q 185 1210 161 1235 q 210 1150 210 1185 m 388 1235 q 445 1210 421 1235 q 469 1150 469 1185 q 444 1091 469 1115 q 386 1067 419 1067 q 326 1092 350 1067 q 303 1150 301 1117 q 327 1210 303 1186 q 388 1235 351 1235 z "},"¥":{"ha":922,"x_min":42,"x_max":881,"o":"m 454 581 l 321 460 l 42 972 l 261 972 l 454 581 m 881 972 l 556 372 l 743 372 l 743 289 l 554 289 l 554 232 l 743 232 l 743 151 l 554 151 l 554 0 l 367 0 l 367 151 l 179 151 l 179 232 l 367 232 l 367 289 l 179 289 l 179 372 l 367 372 l 367 374 l 461 565 l 661 972 l 881 972 z "},"£":{"ha":963,"x_min":42,"x_max":921,"o":"m 921 168 l 921 0 l 363 0 l 168 0 l 42 0 l 42 168 l 168 168 l 168 372 l 81 372 l 81 542 l 168 542 l 168 710 q 199 824 172 774 q 271 910 226 875 q 375 963 315 944 q 504 982 435 982 q 636 966 576 982 q 743 924 696 950 q 826 867 790 899 q 885 804 861 835 l 725 699 q 613 779 667 756 q 501 803 560 803 q 440 794 465 803 q 397 772 414 785 q 372 742 381 758 q 364 710 364 725 l 363 710 l 363 542 l 699 542 l 699 372 l 363 372 l 363 168 l 921 168 z "},"¤":{"ha":686,"x_min":42,"x_max":644,"o":"m 639 518 q 619 410 639 460 q 564 321 600 361 l 644 240 l 611 207 l 531 290 q 444 240 492 258 q 342 222 397 222 q 242 240 290 222 q 156 290 193 258 l 72 207 l 42 240 l 122 321 q 67 410 88 361 q 47 518 47 460 q 65 619 47 571 q 114 704 82 667 l 42 779 l 72 811 l 147 738 q 236 792 186 772 q 342 811 286 811 q 450 792 400 811 q 539 738 500 772 l 611 811 l 644 779 l 572 704 q 622 619 604 667 q 639 518 639 571 m 342 357 q 396 369 371 357 q 440 404 421 382 q 469 456 458 426 q 481 521 481 486 q 469 583 481 554 q 440 632 458 611 q 396 665 421 653 q 342 678 371 678 q 289 665 314 678 q 245 632 264 653 q 216 583 226 611 q 206 521 206 554 q 216 456 206 486 q 245 404 226 426 q 289 369 264 382 q 342 357 314 357 z "},"¦":{"ha":232,"x_min":42,"x_max":190,"o":"m 42 1078 l 190 1078 l 190 650 l 42 650 l 42 1078 m 42 -93 l 42 335 l 190 335 l 190 -93 l 42 -93 z "},"§":{"ha":644,"x_min":35,"x_max":610,"o":"m 610 483 q 597 403 610 439 q 560 339 583 368 q 597 289 583 317 q 610 221 610 261 l 610 219 q 538 51 610 111 q 339 -10 467 -10 q 181 18 258 -10 q 36 97 103 46 l 35 97 l 35 99 l 132 250 l 132 249 q 344 156 221 156 q 426 208 426 156 q 400 249 426 236 q 338 272 374 261 q 323 276 331 275 q 307 281 315 278 q 223 304 265 290 q 147 341 181 318 q 92 399 114 364 q 71 490 71 435 l 71 494 q 118 632 71 574 q 83 685 96 656 q 71 757 71 714 l 71 758 q 90 850 71 808 q 142 922 108 892 q 224 967 176 951 q 329 983 271 983 q 465 963 396 983 q 593 901 533 942 l 593 900 l 508 743 l 506 744 q 426 798 474 779 q 325 817 378 817 q 303 815 315 817 q 280 808 290 814 q 262 794 269 803 q 254 768 254 785 q 265 744 254 754 q 294 724 276 733 q 333 706 311 714 q 378 690 356 699 q 387 688 382 689 q 396 685 392 688 q 481 653 442 669 q 549 615 519 638 q 594 562 578 593 q 610 488 610 531 l 610 483 m 254 500 q 265 477 254 488 q 294 458 276 467 q 333 440 311 449 q 376 425 354 432 q 426 476 426 433 q 400 515 426 501 q 338 538 374 528 q 323 542 331 540 q 307 546 315 543 q 301 547 306 547 q 269 534 283 544 q 254 500 254 524 z "},"¨":{"ha":678,"x_min":42,"x_max":636,"o":"m 247 881 q 216 808 246 839 q 143 778 186 778 q 72 808 103 778 q 42 881 42 839 q 73 953 43 922 q 144 982 103 983 q 217 952 186 982 q 247 881 247 922 m 636 881 q 606 808 636 839 q 533 778 575 778 q 460 808 490 778 q 431 881 431 839 q 461 953 431 922 q 535 982 492 983 q 606 952 576 982 q 636 881 636 922 z "},"©":{"ha":1079,"x_min":42,"x_max":1038,"o":"m 535 635 q 480 623 506 635 q 435 590 454 611 q 406 542 417 569 q 396 483 396 514 q 406 424 396 451 q 435 378 417 397 q 480 347 454 358 q 535 335 506 335 q 606 358 574 335 q 657 419 639 381 l 658 421 l 658 419 l 776 344 l 775 343 q 674 242 738 278 q 535 206 610 206 q 426 227 476 206 q 338 286 375 249 q 278 374 300 324 q 256 483 256 425 q 278 591 256 540 q 338 679 300 642 q 426 738 375 717 q 535 760 476 760 q 674 724 610 760 q 775 622 738 688 l 776 622 l 658 544 l 657 547 q 606 610 639 585 q 535 635 574 635 m 890 838 q 1000 676 963 767 q 1038 485 1038 585 q 1000 295 1038 385 q 890 135 963 206 q 729 26 819 64 q 539 -12 639 -12 q 349 26 439 -12 q 188 135 258 64 q 79 295 117 206 q 42 485 42 385 q 81 678 42 588 q 189 837 121 769 q 347 944 257 904 q 539 983 436 983 q 730 946 640 983 q 890 838 819 908 m 863 163 q 963 312 928 229 q 997 485 997 394 q 963 660 997 576 q 863 808 928 743 q 714 908 797 874 q 539 943 631 943 q 362 907 444 943 q 217 808 279 871 q 119 663 156 746 q 82 485 83 579 q 117 312 82 394 q 218 164 151 229 q 365 63 282 97 q 539 28 449 28 q 713 63 631 28 q 863 163 796 97 z "},"®":{"ha":1078,"x_min":42,"x_max":1035,"o":"m 631 375 l 754 221 l 622 221 l 543 319 l 631 375 m 638 390 q 560 375 603 375 l 443 375 l 443 222 l 339 222 l 339 375 l 340 482 l 342 742 l 563 740 q 633 726 600 740 q 692 686 667 711 q 731 628 717 661 q 744 557 744 594 q 715 457 744 501 q 638 390 685 413 m 444 479 l 561 479 q 617 502 594 479 q 640 564 640 525 q 619 623 642 597 q 561 650 596 649 l 446 650 l 444 482 l 444 481 l 444 479 m 542 979 q 735 940 644 979 q 892 833 825 900 q 997 674 958 765 q 1035 481 1035 583 q 995 291 1033 381 q 886 131 957 201 q 725 24 815 60 q 535 -12 635 -12 q 346 26 435 -11 q 186 135 257 64 q 78 297 115 206 q 43 488 42 388 q 83 679 43 589 q 190 836 122 769 q 349 942 258 903 q 542 979 439 981 m 858 160 q 958 307 922 225 q 994 481 993 389 q 959 658 994 575 q 863 803 924 742 q 718 902 801 865 q 542 939 635 939 q 364 903 447 939 q 219 807 281 868 q 120 663 157 746 q 83 486 83 581 q 116 312 82 394 q 214 164 150 229 q 361 64 279 99 q 535 28 443 29 l 536 28 q 710 62 628 28 q 858 160 792 96 z "},"¡":{"ha":283,"x_min":42,"x_max":242,"o":"m 142 514 q 74 542 101 514 q 47 611 46 571 q 55 648 47 631 q 76 678 63 665 q 106 699 89 692 q 144 706 124 706 q 181 698 164 706 q 212 677 199 690 q 232 647 225 664 q 239 608 239 629 q 210 540 239 568 q 142 514 182 513 m 242 213 l 242 -151 l 42 -151 l 42 213 l 90 457 l 193 457 l 242 213 z "},"¢":{"ha":750,"x_min":42,"x_max":708,"o":"m 560 394 l 708 297 l 707 296 q 576 167 658 214 q 400 119 494 119 q 263 147 329 119 l 215 46 l 125 46 l 192 186 q 83 310 124 235 q 42 476 42 386 q 69 613 42 549 q 146 726 97 678 q 260 803 194 775 q 400 831 325 831 q 494 818 449 831 l 549 932 l 638 932 l 569 786 q 707 656 656 740 l 708 654 l 558 556 l 557 557 q 531 600 546 581 q 496 635 515 619 l 335 299 q 400 286 365 286 q 491 315 449 286 q 557 394 533 343 l 558 396 l 560 394 m 222 476 q 269 346 222 400 l 422 668 q 410 669 415 669 q 400 669 404 669 q 330 654 363 669 q 274 613 297 639 q 236 551 250 586 q 222 476 222 515 z "},"˚":{"ha":450,"x_min":42,"x_max":408,"o":"m 224 792 q 153 806 186 792 q 96 846 121 821 q 56 905 71 871 q 42 976 42 939 q 56 1047 42 1014 q 96 1104 71 1079 q 153 1144 121 1129 q 224 1158 186 1158 q 295 1144 261 1158 q 354 1104 329 1129 q 394 1047 379 1079 q 408 976 408 1014 q 394 905 408 939 q 354 846 379 871 q 295 806 329 821 q 224 792 261 792 m 224 1051 q 171 1029 193 1051 q 149 976 149 1007 q 171 922 149 944 q 224 899 193 899 q 278 922 256 899 q 301 976 301 944 q 278 1029 301 1007 q 224 1051 256 1051 z "},"°":{"ha":450,"x_min":42,"x_max":408,"o":"m 224 792 q 153 806 186 792 q 96 846 121 821 q 56 905 71 871 q 42 976 42 939 q 56 1047 42 1014 q 96 1104 71 1079 q 153 1144 121 1129 q 224 1158 186 1158 q 295 1144 261 1158 q 354 1104 329 1129 q 394 1047 379 1079 q 408 976 408 1014 q 394 905 408 939 q 354 846 379 871 q 295 806 329 821 q 224 792 261 792 m 224 1051 q 171 1029 193 1051 q 149 976 149 1007 q 171 922 149 944 q 224 899 193 899 q 278 922 256 899 q 301 976 301 944 q 278 1029 301 1007 q 224 1051 256 1051 z "},"±":{"ha":506,"x_min":42,"x_max":464,"o":"m 306 629 l 464 629 l 464 521 l 306 521 l 306 386 l 200 386 l 200 521 l 42 521 l 42 629 l 200 629 l 200 765 l 306 765 l 306 629 m 42 210 l 42 317 l 464 317 l 464 210 l 42 210 z "},"´":{"ha":336,"x_min":42,"x_max":294,"o":"m 193 815 l 42 815 l 108 975 l 294 975 l 193 815 z "},"µ":{"ha":975,"x_min":42,"x_max":933,"o":"m 933 172 l 932 -3 l 750 -3 l 743 -3 q 672 11 706 -3 q 615 50 639 25 q 576 108 590 75 q 561 178 561 140 l 561 693 l 750 693 l 750 256 q 774 196 750 222 q 831 172 797 172 l 933 172 m 458 176 l 525 54 q 344 -10 453 -10 q 232 4 278 -10 l 232 -278 l 42 -278 l 42 383 l 42 693 l 232 693 l 232 343 q 234 270 232 306 q 249 208 236 235 q 289 166 261 182 q 368 150 317 150 q 414 157 392 150 q 456 175 436 164 l 458 176 z "},"¶":{"ha":797,"x_min":42,"x_max":756,"o":"m 756 972 l 756 969 l 756 526 l 756 344 l 756 82 l 756 -171 l 638 -171 l 638 815 l 533 815 l 533 -171 l 415 -171 l 415 344 l 354 344 q 233 369 289 344 q 133 435 176 393 q 66 535 90 478 q 42 657 42 592 q 66 778 42 721 q 133 878 90 835 q 233 945 176 921 q 354 969 289 969 l 415 969 l 415 972 l 756 972 m 756 972 l 756 969 l 756 526 l 756 344 l 756 82 l 756 -171 l 638 -171 l 638 815 l 533 815 l 533 -171 l 415 -171 l 415 344 l 354 344 q 233 369 289 344 q 133 435 176 393 q 66 535 90 478 q 42 657 42 592 q 66 778 42 721 q 133 878 90 835 q 233 945 176 921 q 354 969 289 969 l 415 969 l 415 972 l 756 972 z "},"•":{"ha":297,"x_min":42,"x_max":256,"o":"m 254 493 q 222 417 253 449 q 147 388 192 386 q 72 419 103 388 q 43 493 42 450 q 74 569 43 538 q 149 600 104 600 q 224 568 193 599 q 254 493 256 538 z "},"»":{"ha":721,"x_min":42,"x_max":679,"o":"m 225 707 l 379 457 l 225 210 l 42 210 l 197 457 l 42 707 l 225 707 m 524 707 l 679 457 l 524 210 l 340 210 l 497 457 l 340 707 l 524 707 z "},"«":{"ha":721,"x_min":42,"x_max":679,"o":"m 496 707 l 679 707 l 524 457 l 679 210 l 496 210 l 342 457 l 496 707 m 197 707 l 381 707 l 224 457 l 381 210 l 197 210 l 42 457 l 197 707 z "},"¿":{"ha":769,"x_min":42,"x_max":728,"o":"m 397 486 q 320 519 353 486 q 288 597 288 551 q 297 640 288 619 q 320 674 306 660 q 355 697 335 689 q 397 706 375 706 q 476 673 443 706 q 508 596 508 640 q 476 517 508 550 q 397 486 443 485 m 728 -108 q 669 -171 704 -139 q 588 -228 635 -203 q 481 -271 540 -254 q 349 -287 421 -287 q 123 -211 204 -287 q 42 4 42 -135 l 42 8 q 61 109 42 69 q 110 178 81 149 q 173 229 139 207 q 236 277 207 251 q 285 337 265 303 q 304 422 304 371 l 501 422 l 501 406 l 501 404 q 481 286 501 332 q 429 210 460 240 q 362 160 399 181 q 294 118 325 140 q 243 65 264 96 q 222 -15 222 35 q 254 -80 222 -54 q 337 -109 286 -106 q 449 -89 388 -112 q 568 -4 510 -65 l 728 -108 z "},"¼":{"ha":1015,"x_min":42,"x_max":974,"o":"m 790 269 l 790 321 l 901 321 l 901 214 l 790 269 m 924 203 l 974 203 l 974 101 l 901 101 l 901 4 l 790 4 l 790 101 l 538 101 l 538 201 l 715 560 l 840 560 l 667 203 l 697 203 l 790 203 l 901 203 l 924 203 m 296 968 l 296 904 l 101 779 l 42 872 l 185 968 l 296 968 m 296 411 l 183 411 l 183 824 l 296 838 l 296 411 m 724 983 l 814 983 l 267 -11 l 179 -11 l 724 983 z "},"½":{"ha":1065,"x_min":42,"x_max":1024,"o":"m 1024 3 l 624 3 l 624 100 l 803 100 l 840 100 l 1024 100 l 1024 3 m 814 449 q 763 432 785 449 q 729 389 740 415 l 624 418 q 694 520 643 481 q 814 560 746 560 q 894 546 857 560 q 958 507 931 532 q 1000 448 985 482 q 1015 375 1015 414 q 998 309 1015 343 q 953 242 981 275 q 890 175 925 208 q 817 111 854 142 l 703 161 q 714 171 707 164 q 776 224 743 196 q 838 279 810 251 q 885 332 867 307 q 903 375 903 357 q 875 430 903 411 q 814 449 847 449 m 296 904 l 103 779 l 42 871 l 186 968 l 296 968 l 296 904 m 183 411 l 183 824 l 296 838 l 296 411 l 183 411 m 815 983 l 268 -12 l 179 -12 l 725 983 l 815 983 z "},"¾":{"ha":1078,"x_min":42,"x_max":1036,"o":"m 64 871 l 64 968 l 424 968 l 424 871 l 288 871 l 64 871 m 424 606 q 408 530 424 565 q 366 468 393 494 q 303 426 339 442 q 228 411 268 411 q 112 449 163 411 q 42 546 61 488 l 149 581 q 172 535 153 556 q 228 514 190 514 q 292 542 271 514 q 313 606 313 569 q 288 666 313 642 q 228 690 264 690 l 174 690 l 174 774 l 278 861 l 390 811 l 339 768 q 401 699 378 740 q 424 606 424 657 m 853 321 l 964 321 l 964 214 l 853 269 l 853 321 m 1036 203 l 1036 101 l 964 101 l 964 4 l 853 4 l 853 101 l 600 101 l 600 201 l 778 560 l 903 560 l 729 203 l 760 203 l 853 203 l 964 203 l 986 203 l 1036 203 m 876 983 l 331 -11 l 242 -11 l 786 983 l 876 983 z "},"‹":{"ha":421,"x_min":42,"x_max":379,"o":"m 379 706 l 224 457 l 379 210 l 197 210 l 42 457 l 197 706 l 379 706 l 379 706 z "},"›":{"ha":421,"x_min":42,"x_max":379,"o":"m 42 706 l 224 706 l 379 457 l 224 210 l 42 210 l 197 457 l 42 706 z "},"†":{"ha":668,"x_min":42,"x_max":626,"o":"m 626 815 l 626 642 l 436 642 l 436 -11 l 238 -11 l 238 642 l 42 642 l 42 815 l 238 815 l 238 983 l 436 983 l 436 815 l 626 815 l 626 815 z "},"‡":{"ha":669,"x_min":42,"x_max":628,"o":"m 628 642 l 436 642 l 436 333 l 628 333 l 628 161 l 436 161 l 436 -14 l 236 -14 l 236 161 l 42 161 l 42 333 l 236 333 l 236 642 l 42 642 l 42 814 l 236 814 l 236 982 l 436 982 l 436 814 l 628 814 l 628 642 l 628 642 z "},"Ò":{"ha":1038,"x_min":35,"x_max":1003,"o":"m 517 983 q 710 944 621 983 q 864 838 799 906 q 966 680 929 771 q 1003 486 1003 589 q 976 319 1003 399 q 902 177 950 240 q 787 69 854 114 q 638 3 719 24 l 540 169 q 647 200 599 174 q 729 269 694 226 q 783 368 764 313 q 803 486 803 424 q 781 610 803 553 q 722 712 760 668 q 632 781 685 756 q 517 806 579 806 q 403 781 456 806 q 314 712 351 756 q 255 610 276 668 q 233 486 233 553 q 255 363 233 421 q 314 263 276 306 q 403 194 351 219 q 517 169 456 169 l 517 -11 q 326 28 414 -11 q 174 135 239 67 q 72 293 108 203 q 35 486 35 383 q 72 680 35 589 q 174 838 108 771 q 326 944 239 906 q 517 983 414 983 m 475 1074 l 372 1235 l 560 1235 l 628 1074 l 475 1074 z "},"Ó":{"ha":1039,"x_min":35,"x_max":1004,"o":"m 519 985 q 711 945 622 985 q 865 838 800 906 q 967 680 931 771 q 1004 486 1004 589 q 978 319 1004 399 q 903 176 951 240 q 787 67 854 113 q 639 3 719 22 l 542 168 q 648 199 600 172 q 731 269 696 226 q 785 367 765 311 q 804 486 804 424 q 783 610 804 551 q 724 711 761 668 q 634 779 686 754 q 519 804 582 804 q 405 779 457 804 q 315 711 353 754 q 255 610 276 668 q 233 486 233 551 q 255 363 233 421 q 315 261 276 304 q 405 193 353 218 q 519 168 457 168 l 519 -12 q 328 26 417 -12 q 174 133 239 65 q 72 292 108 201 q 35 486 35 383 q 72 680 35 589 q 174 838 108 771 q 328 945 239 906 q 519 985 417 985 m 544 1072 l 393 1072 l 460 1232 l 646 1232 l 544 1072 z "},"Ô":{"ha":1036,"x_min":35,"x_max":1001,"o":"m 519 983 q 710 944 622 983 q 863 837 799 904 q 965 678 928 769 q 1001 485 1001 588 q 975 318 1001 397 q 901 176 949 239 q 786 67 853 113 q 639 1 719 22 l 540 167 q 647 199 599 172 q 729 268 694 225 q 783 367 764 311 q 803 485 803 422 q 781 608 803 550 q 722 710 760 667 q 633 778 685 753 q 519 803 581 803 q 405 778 457 803 q 315 710 353 753 q 256 608 278 667 q 235 485 235 550 q 256 362 235 419 q 315 260 278 304 q 405 192 353 217 q 519 167 457 167 l 519 -12 q 327 26 415 -12 q 174 133 239 65 q 72 292 108 201 q 35 485 35 382 q 72 678 35 588 q 174 837 108 769 q 327 944 239 904 q 519 983 415 983 m 468 1072 l 350 1072 l 465 1260 l 469 1260 l 567 1260 l 569 1260 l 688 1072 l 569 1072 l 521 1165 l 468 1072 z "},"Õ":{"ha":1035,"x_min":35,"x_max":1000,"o":"m 518 983 q 709 944 621 983 q 862 838 797 906 q 963 680 926 771 q 1000 486 1000 589 q 974 320 1000 399 q 899 178 947 242 q 784 70 851 115 q 636 4 717 25 l 539 171 q 645 201 597 175 q 728 270 693 228 q 783 368 764 313 q 803 486 803 424 q 781 610 803 551 q 722 711 760 668 q 631 779 683 754 q 518 804 579 804 q 403 779 456 804 q 314 711 351 754 q 255 610 276 668 q 233 486 233 551 q 255 363 233 421 q 314 263 276 306 q 403 194 351 219 q 518 169 456 169 l 518 -10 q 326 29 415 -10 q 173 135 238 68 q 72 293 108 203 q 35 486 35 383 q 72 680 35 589 q 173 838 108 771 q 326 944 238 906 q 518 983 415 983 m 338 1083 l 258 1128 l 281 1168 q 341 1234 307 1218 q 411 1246 375 1250 q 482 1225 447 1242 q 543 1193 517 1208 q 599 1165 576 1175 q 637 1153 622 1156 q 660 1156 651 1151 q 678 1172 669 1161 l 701 1211 l 778 1160 l 751 1121 q 703 1073 729 1086 q 649 1060 678 1060 q 572 1076 610 1060 q 503 1113 533 1093 q 442 1142 467 1132 q 403 1153 418 1151 q 377 1147 388 1154 q 358 1124 367 1139 l 338 1083 z "},"Ö":{"ha":1039,"x_min":35,"x_max":1004,"o":"m 519 985 q 711 945 622 985 q 865 838 800 906 q 967 680 931 771 q 1004 486 1004 589 q 978 319 1004 399 q 903 176 951 240 q 787 67 854 113 q 639 3 719 22 l 542 168 q 648 199 600 172 q 731 269 696 226 q 785 367 765 311 q 804 486 804 424 q 783 610 804 551 q 724 711 761 668 q 634 779 686 754 q 519 804 582 804 q 405 779 457 804 q 315 711 353 754 q 255 610 276 668 q 233 486 233 551 q 255 363 233 421 q 315 261 276 304 q 405 193 353 218 q 519 168 457 168 l 519 -12 q 328 26 417 -12 q 174 133 239 65 q 72 292 108 201 q 35 486 35 383 q 72 680 35 589 q 174 838 108 771 q 328 945 239 906 q 519 985 417 985 m 428 1138 q 397 1065 426 1096 q 324 1035 367 1035 q 253 1065 283 1035 q 222 1138 222 1096 q 253 1210 224 1179 q 325 1239 283 1240 q 397 1209 367 1239 q 428 1138 428 1179 m 817 1138 q 786 1065 817 1096 q 714 1035 756 1035 q 641 1065 671 1035 q 611 1138 611 1096 q 642 1210 611 1179 q 715 1239 672 1240 q 787 1209 757 1239 q 817 1138 817 1179 z "},"Ð":{"ha":1151,"x_min":14,"x_max":1117,"o":"m 632 972 q 820 934 732 972 q 974 830 908 896 q 1078 675 1040 764 q 1117 485 1117 586 q 1078 296 1117 385 q 974 142 1040 207 q 820 38 908 76 q 632 0 732 0 l 549 0 l 457 169 l 632 169 q 743 193 690 169 q 835 258 796 217 q 898 358 875 300 q 921 485 921 415 q 898 610 921 553 q 835 711 875 668 q 743 778 796 754 q 632 803 690 803 l 406 803 l 406 571 l 586 571 l 586 401 l 406 401 l 406 0 l 211 0 l 211 401 l 14 401 l 14 571 l 211 571 l 211 972 l 338 972 l 406 972 l 632 972 l 632 972 z "},"Ñ":{"ha":917,"x_min":42,"x_max":875,"o":"m 875 69 l 875 0 l 671 0 l 244 614 l 244 0 l 42 0 l 42 974 l 244 974 l 671 360 l 875 69 m 874 972 l 874 244 l 671 389 l 671 972 l 874 972 m 279 1081 l 200 1125 l 221 1167 q 281 1231 247 1215 q 351 1243 315 1247 q 423 1222 388 1239 q 486 1190 458 1206 q 541 1163 519 1172 q 577 1151 563 1153 q 601 1153 592 1149 q 617 1169 610 1158 l 642 1208 l 717 1157 l 693 1117 q 642 1069 669 1083 q 588 1056 615 1056 q 513 1074 551 1056 q 443 1107 474 1092 q 383 1138 407 1128 q 344 1150 360 1149 q 318 1144 328 1151 q 300 1121 308 1136 l 279 1081 z "},"Ž":{"ha":875,"x_min":14,"x_max":861,"o":"m 269 169 l 329 169 l 854 169 l 854 0 l 14 0 l 14 169 l 269 169 m 50 972 l 861 972 l 861 782 l 288 189 l 96 276 l 607 801 l 50 801 l 50 972 m 404 1071 l 403 1071 l 288 1258 l 404 1258 l 457 1163 l 504 1258 l 624 1258 l 507 1071 l 504 1071 l 404 1071 z "},"ž":{"ha":744,"x_min":14,"x_max":731,"o":"m 14 164 l 708 164 l 708 0 l 14 0 l 14 164 m 731 697 l 731 514 l 731 515 l 324 176 l 322 178 l 106 249 l 108 251 l 461 544 l 36 544 l 36 697 l 731 697 m 322 774 l 321 774 l 204 964 l 322 964 l 374 868 l 422 964 l 542 964 l 425 774 l 421 774 l 322 774 z "},"š":{"ha":638,"x_min":35,"x_max":603,"o":"m 392 411 q 475 381 436 396 q 542 343 514 365 q 587 290 571 321 q 603 215 603 260 l 603 213 q 533 48 603 107 q 336 -11 463 -11 q 179 16 256 -11 q 36 93 103 43 l 35 94 l 36 94 l 131 244 l 132 243 q 342 151 217 151 q 422 204 422 151 q 396 243 422 231 q 333 265 369 256 q 319 270 326 268 q 306 275 313 272 q 222 299 264 286 q 147 335 181 313 q 92 393 113 358 q 71 482 71 428 l 71 486 q 89 575 71 535 q 140 644 107 615 q 221 690 174 674 q 326 706 268 706 q 460 685 393 706 q 586 626 528 664 l 588 625 l 586 624 l 503 469 l 500 471 q 422 522 468 503 q 322 540 375 540 q 299 538 311 540 q 276 531 286 536 q 258 517 265 526 q 250 492 250 507 q 261 468 250 479 q 290 448 272 457 q 329 431 307 439 q 374 417 351 424 q 392 411 385 414 m 265 771 l 150 960 l 269 960 l 321 865 l 368 960 l 486 960 l 371 771 l 368 771 l 269 771 l 265 771 z "},"“":{"ha":588,"x_min":42,"x_max":546,"o":"m 485 972 l 546 618 l 417 618 l 279 972 l 485 972 m 250 972 l 311 618 l 181 618 l 42 972 l 250 972 z "},"”":{"ha":588,"x_min":42,"x_max":546,"o":"m 308 972 l 171 618 l 42 618 l 103 972 l 308 972 m 546 972 l 407 618 l 276 618 l 338 972 l 546 972 z "},"’":{"ha":354,"x_min":42,"x_max":313,"o":"m 313 972 l 172 615 l 42 615 l 104 972 l 313 972 z "},"‘":{"ha":354,"x_min":42,"x_max":313,"o":"m 250 972 l 313 615 l 182 615 l 42 972 l 250 972 z "},"„":{"ha":588,"x_min":42,"x_max":546,"o":"m 308 164 l 171 -190 l 42 -190 l 103 164 l 308 164 m 546 164 l 407 -190 l 276 -190 l 338 164 l 546 164 z "},"Ù":{"ha":922,"x_min":42,"x_max":881,"o":"m 239 401 q 256 308 239 351 q 304 231 274 264 q 376 179 335 199 q 463 160 417 160 l 463 -11 q 299 22 375 -11 q 165 111 222 54 q 74 244 107 168 q 42 408 42 321 l 42 972 l 239 972 l 239 408 l 239 406 l 239 401 m 881 972 l 881 408 q 856 269 881 335 q 790 149 832 203 q 689 58 747 96 q 563 1 631 19 l 476 161 q 557 184 519 164 q 623 237 594 204 q 667 312 651 269 q 683 401 683 354 q 683 403 683 403 q 682 406 682 404 q 683 407 682 410 q 683 412 683 404 q 683 445 683 419 q 683 533 683 471 q 683 700 683 594 q 683 972 683 806 l 881 972 m 578 1074 l 439 1074 l 344 1221 l 517 1221 l 578 1074 l 578 1074 z "},"Ú":{"ha":922,"x_min":42,"x_max":881,"o":"m 239 401 q 256 308 239 351 q 304 231 274 264 q 376 179 335 199 q 463 160 417 160 l 463 -11 q 299 22 375 -11 q 165 111 222 54 q 74 244 107 168 q 42 408 42 321 l 42 972 l 239 972 l 239 408 l 239 406 l 239 401 m 881 972 l 881 408 q 856 269 881 335 q 790 149 832 203 q 689 58 747 96 q 563 1 631 19 l 476 161 q 557 184 519 164 q 623 237 594 204 q 667 312 651 269 q 683 401 683 354 q 683 403 683 403 q 682 406 682 404 q 683 407 682 410 q 683 412 683 404 q 683 445 683 419 q 683 533 683 471 q 683 700 683 594 q 683 972 683 806 l 881 972 m 486 1065 l 335 1065 l 401 1225 l 588 1225 l 486 1065 z "},"Û":{"ha":918,"x_min":42,"x_max":876,"o":"m 239 403 q 256 308 239 353 q 303 231 274 264 q 374 180 333 199 q 461 161 415 161 l 461 -10 q 299 23 375 -10 q 165 113 222 56 q 75 246 108 169 q 42 410 42 322 l 42 983 l 239 983 l 239 410 l 239 407 l 239 403 m 876 983 l 876 410 q 853 270 876 336 q 787 150 829 204 q 687 58 744 96 q 563 3 629 19 l 475 161 q 556 184 518 164 q 622 237 594 204 q 665 312 649 269 q 681 403 681 354 l 681 407 l 681 410 l 681 983 l 876 983 m 510 1079 l 463 1175 l 410 1079 l 292 1079 l 408 1269 l 410 1269 l 510 1269 l 513 1269 l 631 1079 l 510 1079 z "},"Ü":{"ha":919,"x_min":42,"x_max":878,"o":"m 239 401 q 256 308 239 351 q 304 231 274 264 q 374 178 335 197 q 460 160 414 160 l 460 -11 q 298 22 374 -11 q 165 113 222 56 q 75 245 108 169 q 42 407 42 321 l 42 983 l 239 983 l 239 407 l 239 404 l 239 401 m 878 983 l 878 407 q 853 267 878 333 q 787 148 829 201 q 687 56 744 94 q 563 1 629 18 l 475 161 q 556 184 518 164 q 622 236 594 204 q 666 310 650 268 q 682 401 682 353 l 682 404 l 682 407 l 682 983 l 878 983 m 328 1075 q 268 1100 293 1075 q 243 1161 243 1125 q 269 1222 244 1197 q 329 1246 294 1246 q 390 1221 365 1246 q 413 1160 414 1196 q 388 1099 413 1124 q 328 1075 364 1075 m 593 1075 q 532 1100 557 1075 q 507 1161 507 1125 q 533 1222 507 1197 q 594 1246 558 1246 q 653 1221 629 1246 q 676 1160 678 1196 q 652 1099 676 1124 q 593 1075 628 1075 z "},"Ý":{"ha":933,"x_min":14,"x_max":919,"o":"m 249 972 l 451 564 l 301 439 l 14 972 l 249 972 m 682 972 l 919 972 l 567 322 l 567 0 l 364 0 l 364 322 l 363 325 l 465 535 l 682 972 m 492 1065 l 340 1065 l 407 1225 l 593 1225 l 492 1065 z "},"Ÿ":{"ha":803,"x_min":14,"x_max":789,"o":"m 271 63 l 14 694 l 213 694 l 213 692 l 400 169 l 272 60 l 271 63 m 789 694 l 788 690 q 742 568 764 628 q 701 454 721 508 q 576 120 632 260 q 458 -108 519 -19 q 392 -185 426 -153 q 317 -237 358 -217 q 228 -267 276 -257 q 119 -276 179 -276 l 118 -276 l 118 -89 l 119 -89 q 185 -86 156 -89 q 238 -74 214 -83 q 282 -49 263 -65 q 319 -6 301 -32 q 356 56 338 19 q 393 142 374 92 q 436 258 413 192 q 489 407 460 324 q 534 540 510 469 q 590 692 558 610 l 590 694 l 789 694 m 268 783 q 207 808 232 783 q 182 867 182 832 q 208 927 182 903 q 269 950 233 951 q 328 926 304 950 q 351 865 353 901 q 327 807 351 831 q 268 783 303 783 m 526 783 q 469 808 493 783 q 444 867 444 832 q 469 927 444 903 q 528 950 494 951 q 590 926 564 950 q 614 865 615 901 q 588 807 614 831 q 526 783 563 783 z "},"à":{"ha":835,"x_min":28,"x_max":793,"o":"m 793 694 l 793 -1 l 607 -1 l 607 349 q 592 423 607 388 q 550 485 576 458 q 488 526 524 511 q 413 542 453 542 q 337 526 372 542 q 276 485 301 511 q 235 423 250 458 q 219 347 219 388 q 235 272 219 307 q 276 210 250 236 q 337 169 301 185 q 413 154 372 154 q 488 168 451 154 l 489 168 l 490 168 l 558 42 l 557 40 q 389 -12 489 -12 q 249 16 314 -12 q 134 93 183 44 q 56 207 85 142 q 28 347 28 272 q 56 488 28 422 q 134 601 85 553 q 249 678 183 650 q 389 707 314 707 q 607 600 532 707 l 607 694 l 793 694 m 329 772 l 228 932 l 414 932 l 482 772 l 329 772 z "},"á":{"ha":832,"x_min":28,"x_max":790,"o":"m 790 694 l 789 1 l 607 1 l 607 347 q 591 423 607 388 q 549 484 575 458 q 487 525 522 510 q 413 540 451 540 q 336 525 372 540 q 274 483 300 510 q 232 422 247 457 q 217 346 217 386 q 232 272 217 307 q 274 211 247 238 q 336 169 300 185 q 413 154 372 154 q 486 168 453 154 l 488 169 l 489 168 l 557 43 l 557 42 q 386 -11 488 -11 q 247 17 313 -11 q 133 94 182 46 q 56 208 85 143 q 28 346 28 272 q 56 486 28 421 q 133 600 85 551 q 247 677 182 649 q 386 706 313 706 q 607 600 531 706 l 607 694 l 790 694 m 433 771 l 282 771 l 349 931 l 536 931 l 433 771 z "},"â":{"ha":831,"x_min":28,"x_max":789,"o":"m 789 694 l 789 0 l 606 0 l 606 349 q 590 423 606 388 q 548 484 574 458 q 487 525 522 510 q 411 540 451 540 q 335 525 371 540 q 274 483 300 510 q 232 422 247 457 q 217 347 217 386 q 232 272 217 307 q 274 210 247 236 q 335 169 300 185 q 411 154 371 154 q 485 169 450 154 l 488 169 l 488 168 l 557 43 q 388 -11 486 -11 q 248 17 314 -11 q 133 94 182 46 q 56 208 85 143 q 28 347 28 274 q 56 486 28 421 q 133 600 85 551 q 248 677 182 649 q 388 706 314 706 q 606 600 531 706 l 606 694 l 789 694 m 358 771 l 240 771 l 356 958 l 360 958 l 458 958 l 460 958 l 578 771 l 458 771 l 410 865 l 358 771 z "},"ã":{"ha":829,"x_min":28,"x_max":788,"o":"m 203 767 l 124 811 l 144 853 q 205 917 171 901 q 275 929 239 933 q 345 908 311 925 q 407 876 379 892 q 463 849 440 858 q 501 837 486 839 q 524 840 515 835 q 540 856 533 844 l 565 896 l 640 843 l 617 806 q 567 756 593 769 q 513 743 540 743 q 435 760 474 743 q 365 796 397 778 q 306 825 329 815 q 267 836 282 835 q 242 830 251 838 q 224 807 232 822 l 203 767 m 788 694 l 788 1 l 604 1 l 604 349 q 589 423 604 388 q 548 484 574 458 q 487 525 522 510 q 411 540 451 540 q 335 525 371 540 q 274 484 300 510 q 232 423 247 458 q 217 347 217 388 q 232 272 217 307 q 274 211 247 238 q 335 170 300 185 q 411 156 371 156 q 486 168 449 156 l 488 169 l 488 168 l 557 43 l 556 42 q 388 -11 486 -11 q 247 17 313 -11 q 133 94 182 46 q 56 208 85 143 q 28 347 28 274 q 56 486 28 421 q 133 600 85 551 q 247 677 182 649 q 388 706 313 706 q 604 600 528 706 l 604 694 l 788 694 z "},"ä":{"ha":831,"x_min":28,"x_max":789,"o":"m 789 694 l 789 1 l 604 1 l 604 350 q 589 424 604 389 q 547 485 574 458 q 485 526 521 511 q 410 540 450 540 q 335 525 369 540 q 274 484 300 510 q 232 423 247 458 q 217 349 217 388 q 232 273 217 308 q 274 211 247 238 q 335 169 300 185 q 410 154 369 154 q 486 169 447 154 l 488 171 l 488 168 l 557 43 l 554 43 q 388 -10 485 -10 q 247 18 313 -10 q 133 94 182 46 q 56 208 83 143 q 28 349 28 274 q 56 488 28 422 q 133 601 83 553 q 247 678 182 650 q 388 706 313 706 q 604 600 529 706 l 604 694 l 789 694 m 242 778 q 181 803 206 779 q 157 864 157 828 q 183 922 158 897 q 243 946 207 947 q 302 922 278 946 q 325 863 326 897 q 301 802 325 826 q 242 778 278 778 m 503 778 q 442 803 467 779 q 418 864 418 828 q 443 922 418 897 q 504 946 468 947 q 563 922 539 946 q 588 863 588 897 q 563 802 588 826 q 503 778 538 778 z "},"å":{"ha":829,"x_min":28,"x_max":788,"o":"m 788 693 l 788 0 l 604 0 l 606 349 q 590 422 606 388 q 547 483 574 457 q 485 524 521 510 q 410 539 450 539 q 335 524 369 539 q 274 483 300 508 q 232 422 247 457 q 217 347 217 386 q 232 272 217 307 q 274 210 247 236 q 335 169 300 185 q 410 154 369 154 q 485 168 451 154 l 486 169 l 488 168 l 556 43 l 554 42 q 388 -11 486 -11 q 247 17 313 -11 q 133 94 182 46 q 56 208 85 143 q 28 347 28 274 q 56 485 28 421 q 133 599 85 550 q 247 676 182 647 q 388 704 313 704 q 606 599 525 704 l 606 693 l 788 693 m 369 740 q 284 775 319 740 q 249 861 249 810 q 258 908 249 886 q 284 945 268 929 q 322 971 300 961 q 369 981 344 981 q 417 971 394 981 q 455 945 439 961 q 481 908 471 929 q 490 861 490 886 q 455 775 490 810 q 369 740 419 740 m 369 908 q 333 894 347 908 q 319 861 319 881 q 333 825 319 840 q 369 810 347 810 q 403 825 389 810 q 418 861 418 840 q 403 894 418 881 q 369 908 389 908 z "},"æ":{"ha":1356,"x_min":28,"x_max":1328,"o":"m 965 706 q 1106 678 1040 706 q 1222 601 1172 650 q 1299 488 1271 553 q 1328 347 1328 422 q 1325 308 1328 328 q 1318 268 1322 288 l 1317 267 l 1256 267 l 1131 267 l 963 267 l 875 407 l 1136 407 q 1074 503 1119 465 q 965 542 1028 542 q 903 530 932 542 q 851 497 874 518 q 812 446 828 475 q 790 383 796 417 l 790 315 q 810 258 796 286 q 848 206 825 229 q 900 167 871 182 q 965 153 929 153 q 1036 164 1004 153 q 1097 210 1068 175 l 1097 211 l 1097 210 l 1260 139 l 1258 138 q 1130 28 1207 67 q 965 -11 1053 -11 q 874 1 917 -11 q 790 35 831 13 l 790 0 l 606 0 l 607 344 q 606 346 607 346 q 606 347 606 346 q 607 349 606 349 q 590 423 606 388 q 549 484 575 458 q 487 525 522 510 q 411 540 451 540 q 336 525 371 540 q 275 484 301 510 q 233 423 249 458 q 218 347 218 388 q 233 272 218 307 q 275 211 249 238 q 336 169 301 185 q 411 154 371 154 q 486 168 447 154 l 489 169 l 489 168 l 558 43 l 557 42 q 388 -11 490 -11 q 247 17 313 -11 q 133 93 182 44 q 56 207 85 142 q 28 347 28 272 q 56 488 28 422 q 133 601 85 553 q 247 678 182 650 q 388 706 313 706 q 607 601 528 706 l 607 696 l 790 696 l 790 660 q 874 694 831 682 q 965 706 918 706 z "},"è":{"ha":778,"x_min":28,"x_max":750,"o":"m 388 706 q 529 678 463 706 q 644 601 596 650 q 722 488 693 553 q 750 347 750 422 q 747 308 750 328 q 740 268 744 289 l 740 267 l 675 267 l 553 267 l 386 267 l 297 407 l 558 407 q 495 503 540 465 q 388 540 450 540 q 317 525 350 540 q 261 484 285 510 q 224 423 238 458 q 210 347 210 388 q 222 281 210 315 q 258 219 235 247 q 315 172 282 190 q 388 153 347 153 q 458 164 426 153 q 518 211 489 175 l 519 213 l 519 211 l 681 139 l 679 138 q 553 28 631 67 q 388 -11 475 -11 q 247 17 313 -11 q 133 93 182 44 q 56 207 85 142 q 28 347 28 272 q 56 488 28 422 q 133 601 85 553 q 247 678 182 650 q 388 706 313 706 m 364 760 l 261 919 l 450 919 l 514 760 l 364 760 z "},"é":{"ha":775,"x_min":28,"x_max":747,"o":"m 389 706 q 528 677 463 706 q 642 600 593 649 q 719 486 690 551 q 747 347 747 421 q 738 269 747 307 l 675 269 l 550 269 l 385 269 l 297 408 l 556 408 q 494 502 539 464 q 389 540 450 540 q 318 525 351 540 q 260 484 285 510 q 222 423 236 458 q 208 347 208 388 q 222 281 208 315 q 258 219 235 247 q 315 173 282 192 q 389 154 349 154 q 458 165 426 154 q 515 211 489 175 l 517 213 l 518 211 l 679 139 l 678 138 q 550 28 628 67 q 389 -11 472 -11 q 249 17 314 -11 q 134 94 183 46 q 56 208 85 143 q 28 347 28 274 q 56 486 28 421 q 134 600 85 551 q 249 677 183 649 q 389 706 314 706 m 414 758 l 263 758 l 329 919 l 513 919 l 414 758 z "},"ê":{"ha":775,"x_min":28,"x_max":747,"o":"m 389 706 q 528 677 463 706 q 642 600 593 649 q 719 487 690 551 q 747 349 747 422 q 739 271 747 308 l 739 269 l 675 269 l 550 269 l 386 269 l 297 410 l 557 410 q 494 503 539 467 q 389 540 450 540 q 318 526 351 540 q 261 485 285 511 q 224 424 238 460 q 210 349 210 389 q 222 283 210 317 q 258 220 235 249 q 315 173 282 192 q 389 154 347 154 q 458 165 426 154 q 515 213 489 176 l 517 213 l 518 213 l 679 139 q 552 29 628 68 q 389 -10 476 -10 q 249 19 314 -10 q 134 96 183 47 q 56 210 85 144 q 28 349 28 275 q 56 487 28 422 q 134 600 85 551 q 249 677 183 649 q 389 706 314 706 m 339 760 l 221 760 l 336 949 l 340 949 l 439 949 l 440 949 l 554 760 l 439 760 l 392 854 l 339 760 z "},"ë":{"ha":776,"x_min":28,"x_max":749,"o":"m 389 706 q 528 677 463 706 q 642 600 593 649 q 720 487 692 551 q 749 349 749 422 q 739 269 749 304 l 676 269 l 550 269 l 386 269 l 297 410 l 557 410 q 496 504 542 468 q 389 540 450 540 q 318 526 351 540 q 261 485 285 511 q 224 425 238 460 q 210 349 210 390 q 222 282 210 317 q 258 219 235 247 q 315 172 282 190 q 389 153 347 153 q 458 164 428 153 q 517 213 489 175 l 518 214 l 519 213 l 682 138 l 681 138 q 551 28 629 67 q 389 -11 474 -11 q 248 17 314 -11 q 133 94 182 46 q 56 208 85 143 q 28 349 28 274 q 56 487 28 422 q 133 600 85 551 q 248 677 182 649 q 389 706 314 706 m 257 769 q 197 794 222 769 q 172 853 172 818 q 197 913 172 888 q 258 938 222 938 q 318 913 294 938 q 342 851 342 888 q 317 793 342 817 q 257 769 293 769 m 518 769 q 460 794 483 769 q 436 853 436 818 q 460 913 436 888 q 519 938 485 938 q 579 913 554 938 q 603 851 604 888 q 578 793 603 817 q 518 769 553 769 z "},"ì":{"ha":336,"x_min":42,"x_max":294,"o":"m 110 0 l 111 694 l 294 694 l 294 0 l 110 0 m 294 772 l 144 772 l 42 932 l 229 932 l 294 772 z "},"í":{"ha":346,"x_min":42,"x_max":304,"o":"m 42 0 l 42 694 l 228 694 l 228 0 l 42 0 m 304 932 l 204 772 l 51 772 l 119 932 l 304 932 z "},"î":{"ha":421,"x_min":42,"x_max":379,"o":"m 118 1 l 118 694 l 303 694 l 303 1 l 118 1 m 210 868 l 160 774 l 42 774 l 158 961 l 160 961 l 260 961 l 261 961 l 379 774 l 260 774 l 210 868 z "},"ï":{"ha":514,"x_min":42,"x_max":472,"o":"m 164 694 l 349 694 l 349 0 l 164 0 l 164 694 m 210 861 q 185 801 210 825 q 125 778 161 778 q 66 802 90 778 q 42 863 42 826 q 67 922 42 897 q 125 946 92 946 q 185 921 161 946 q 210 861 210 896 m 389 946 q 448 921 424 946 q 471 861 472 896 q 447 801 471 825 q 388 778 422 778 q 326 802 351 778 q 301 863 301 826 q 327 922 301 897 q 389 946 353 946 z "},"ò":{"ha":775,"x_min":28,"x_max":747,"o":"m 389 706 q 528 677 463 706 q 642 599 593 649 q 719 485 690 550 q 747 346 747 419 q 719 208 747 272 q 642 94 690 143 q 528 17 593 46 q 389 -11 463 -11 q 249 17 314 -11 q 134 94 183 46 q 56 208 85 143 q 28 346 28 272 q 56 485 28 419 q 134 599 85 550 q 249 677 183 649 q 389 706 314 706 m 389 153 q 454 168 424 153 q 507 210 485 183 q 542 274 529 238 q 556 353 556 311 q 542 426 556 392 q 507 487 529 461 q 454 527 485 513 q 389 542 424 542 q 322 527 353 542 q 269 487 292 513 q 234 426 247 461 q 221 353 221 392 q 234 274 221 311 q 269 210 247 238 q 322 168 292 183 q 389 153 353 153 m 363 771 l 261 931 l 449 931 l 514 771 l 363 771 z "},"ó":{"ha":775,"x_min":28,"x_max":747,"o":"m 388 704 q 528 676 463 704 q 642 600 593 649 q 719 486 690 551 q 747 347 747 421 q 719 208 747 274 q 642 94 690 143 q 528 17 593 46 q 388 -11 463 -11 q 248 17 314 -11 q 133 94 182 46 q 56 208 85 143 q 28 347 28 274 q 56 486 28 421 q 133 600 85 551 q 248 676 182 649 q 388 704 314 704 m 388 153 q 453 168 422 153 q 507 210 485 183 q 542 273 529 236 q 556 351 556 310 q 542 426 556 392 q 507 488 529 461 q 453 528 485 514 q 388 543 422 543 q 322 528 353 543 q 269 488 292 514 q 235 426 247 461 q 222 351 222 392 q 235 273 222 310 q 269 210 247 236 q 322 168 292 183 q 388 153 353 153 m 413 771 l 263 771 l 328 931 l 514 931 l 413 771 z "},"ô":{"ha":774,"x_min":28,"x_max":746,"o":"m 388 704 q 528 676 463 704 q 642 599 593 647 q 718 485 690 550 q 746 347 746 421 q 718 207 746 272 q 642 93 690 142 q 528 17 593 44 q 388 -11 463 -11 q 247 17 313 -11 q 133 93 182 44 q 56 207 85 142 q 28 347 28 272 q 56 485 28 421 q 133 599 85 550 q 247 676 182 647 q 388 704 313 704 m 388 153 q 453 168 422 153 q 506 210 483 183 q 542 274 529 238 q 556 351 556 310 q 542 425 556 390 q 506 485 529 460 q 453 526 483 511 q 388 542 422 542 q 322 526 353 542 q 269 485 292 511 q 233 425 246 460 q 219 351 219 390 q 233 274 219 310 q 269 210 246 238 q 322 168 292 183 q 388 153 353 153 m 338 769 l 219 769 l 335 957 l 339 957 l 438 957 l 439 957 l 556 769 l 438 769 l 389 864 l 338 769 z "},"õ":{"ha":776,"x_min":28,"x_max":749,"o":"m 389 706 q 528 677 463 706 q 642 600 593 649 q 720 486 692 551 q 749 346 749 421 q 720 208 749 272 q 642 94 692 143 q 528 17 593 46 q 389 -11 463 -11 q 248 17 314 -11 q 133 94 182 46 q 56 208 85 143 q 28 346 28 272 q 56 486 28 421 q 133 600 85 551 q 248 677 182 649 q 389 706 314 706 m 389 153 q 453 168 424 153 q 506 210 483 183 q 542 274 529 238 q 556 353 556 311 q 542 426 556 392 q 506 487 529 461 q 453 527 483 513 q 389 542 424 542 q 324 527 354 542 q 270 487 293 513 q 234 426 247 461 q 221 353 221 392 q 234 274 221 311 q 270 210 247 238 q 324 168 293 183 q 389 153 354 153 m 207 767 l 131 811 l 151 853 q 212 917 178 901 q 282 929 246 933 q 352 908 318 925 q 414 876 386 892 q 469 849 447 858 q 506 837 492 839 q 530 840 521 835 q 547 856 539 844 l 571 896 l 646 843 l 621 806 q 573 756 599 769 q 519 743 547 743 q 442 760 479 743 q 372 796 404 778 q 313 825 336 815 q 274 836 289 835 q 249 830 258 838 q 231 807 239 822 l 207 767 z "},"ö":{"ha":778,"x_min":28,"x_max":750,"o":"m 389 706 q 528 677 463 706 q 644 600 594 649 q 722 486 693 551 q 750 347 750 421 q 722 208 750 274 q 644 94 693 143 q 528 17 594 46 q 389 -11 463 -11 q 249 17 314 -11 q 134 94 183 46 q 56 208 85 143 q 28 347 28 274 q 56 486 28 421 q 134 600 85 551 q 249 677 183 649 q 389 706 314 706 m 389 154 q 454 169 424 154 q 508 212 485 185 q 544 276 531 239 q 557 354 557 313 q 544 428 557 393 q 508 488 531 463 q 454 528 485 514 q 389 543 424 543 q 323 528 354 543 q 269 488 292 514 q 233 428 246 463 q 219 354 219 393 q 233 276 219 313 q 269 212 246 239 q 323 169 292 185 q 389 154 354 154 m 257 778 q 197 804 221 779 q 174 865 174 829 q 198 924 174 899 q 258 947 222 949 q 318 923 294 947 q 342 864 342 899 q 317 803 342 828 q 257 778 293 778 m 519 778 q 459 804 483 779 q 435 865 435 829 q 460 924 436 899 q 521 947 485 949 q 580 923 556 947 q 603 864 604 899 q 579 803 603 828 q 519 778 556 778 z "},"ù":{"ha":790,"x_min":35,"x_max":749,"o":"m 749 696 l 749 -6 l 558 -6 l 558 696 l 749 696 m 456 174 l 524 51 l 522 51 q 340 -12 450 -12 q 100 78 172 -12 q 51 187 68 122 q 35 344 35 251 l 35 696 l 225 696 l 225 344 q 227 270 225 306 q 242 208 229 235 q 283 165 256 181 q 364 149 311 149 q 411 156 389 149 q 454 174 433 163 l 456 174 m 368 783 l 264 944 l 453 944 l 519 783 l 368 783 z "},"ú":{"ha":788,"x_min":35,"x_max":746,"o":"m 746 694 l 746 -4 l 556 -4 l 556 694 l 746 694 m 519 53 l 518 53 q 339 -11 450 -11 q 99 79 172 -11 q 51 188 67 124 q 35 344 35 253 l 35 694 l 225 694 l 225 344 q 227 271 225 306 q 242 209 229 236 q 283 166 256 182 q 363 150 311 150 q 408 157 386 150 q 453 175 431 164 l 519 53 m 415 781 l 264 781 l 329 942 l 517 942 l 415 781 z "},"û":{"ha":790,"x_min":35,"x_max":749,"o":"m 749 697 l 749 -4 l 558 -4 l 558 697 l 749 697 m 454 175 l 522 53 l 521 51 q 339 -11 450 -11 q 100 79 171 -11 q 35 343 35 163 l 35 697 l 224 697 l 224 343 q 226 270 224 306 q 241 208 228 235 q 282 166 254 182 q 363 150 310 150 q 409 156 386 150 q 453 174 432 163 l 454 175 m 340 783 l 221 783 l 339 972 l 340 972 l 440 972 l 443 972 l 563 783 l 442 783 l 393 878 l 340 783 z "},"ü":{"ha":788,"x_min":35,"x_max":746,"o":"m 746 694 l 746 -4 l 556 -4 l 556 694 l 746 694 m 453 176 l 521 53 l 519 53 q 340 -11 450 -11 q 100 79 172 -11 q 35 344 35 163 l 35 694 l 225 694 l 225 344 q 227 271 225 306 q 242 209 229 236 q 283 166 256 182 q 363 150 311 150 q 408 157 386 150 q 451 175 431 164 l 453 176 m 258 786 q 198 813 222 788 q 174 874 174 838 q 199 933 174 908 q 258 957 224 958 q 319 933 294 957 q 344 872 344 908 q 319 811 344 836 q 258 786 293 786 m 607 872 q 581 811 606 836 q 521 786 557 786 q 460 813 485 788 q 436 874 436 838 q 461 933 436 908 q 522 957 486 958 q 583 933 558 957 q 607 872 607 908 z "},"ý":{"ha":808,"x_min":14,"x_max":794,"o":"m 269 53 l 14 693 l 215 693 l 215 692 l 400 161 l 271 51 l 269 53 m 794 693 l 794 690 q 749 565 771 626 q 707 451 726 504 q 580 113 636 253 q 461 -117 524 -26 q 318 -248 397 -208 q 121 -287 239 -287 l 118 -287 l 118 -99 l 121 -99 q 187 -95 158 -99 q 240 -83 215 -92 q 283 -57 264 -74 q 321 -14 303 -40 q 357 47 339 11 q 395 134 375 83 q 439 251 415 185 q 492 401 463 317 q 539 537 514 465 q 594 692 564 608 l 594 693 l 794 693 m 483 774 l 328 774 l 396 935 l 583 935 l 483 774 z "},"ÿ":{"ha":810,"x_min":14,"x_max":796,"o":"m 272 53 l 14 689 l 214 689 l 214 688 l 401 160 l 274 50 l 272 53 m 796 689 l 794 686 q 748 562 769 622 q 707 447 726 501 q 580 111 636 251 q 461 -118 524 -29 q 319 -249 399 -208 q 119 -289 239 -289 l 118 -289 l 118 -99 l 119 -99 q 240 -84 193 -99 q 322 -17 286 -69 q 358 45 340 8 q 397 132 376 82 q 440 248 417 182 q 493 399 464 314 q 540 533 515 463 q 594 688 564 604 l 594 689 l 796 689 m 269 778 q 209 803 233 778 q 185 864 185 828 q 210 924 185 899 q 271 947 235 949 q 331 922 307 947 q 354 863 356 897 q 330 802 354 826 q 269 778 306 778 m 532 778 q 472 803 496 778 q 447 864 447 828 q 472 924 447 899 q 533 947 497 949 q 594 922 569 947 q 617 863 618 897 q 592 802 617 826 q 532 778 568 778 z "},"œ":{"ha":1331,"x_min":35,"x_max":1296,"o":"m 935 704 q 1076 676 1010 704 q 1190 600 1142 649 q 1267 486 1239 551 q 1296 347 1296 421 q 1293 308 1296 328 q 1288 268 1290 288 l 1286 267 l 932 267 l 844 407 l 1106 407 q 1043 503 1089 465 q 935 540 997 540 q 865 525 897 540 q 808 484 832 510 q 771 423 785 458 q 757 347 757 388 q 769 281 757 315 q 805 219 782 247 q 861 173 828 192 q 935 154 894 154 q 1005 165 974 154 q 1065 211 1036 175 l 1067 211 l 1228 139 l 1226 136 q 1099 28 1175 67 q 935 -11 1022 -11 q 785 22 854 -11 q 667 111 715 54 q 546 22 615 54 q 394 -11 476 -11 q 254 17 319 -11 q 140 94 189 46 q 63 208 92 143 q 35 347 35 274 q 63 486 35 421 q 140 600 92 551 q 254 677 189 649 q 394 706 319 706 q 546 673 476 706 q 667 583 615 640 q 785 672 715 640 q 935 704 854 704 m 394 154 q 460 169 429 154 q 513 212 490 185 q 549 275 536 239 q 563 353 563 311 q 549 426 563 392 q 513 487 536 461 q 460 528 490 513 q 394 543 429 543 q 329 528 360 543 q 276 487 299 513 q 240 426 253 461 q 226 353 226 392 q 240 275 226 311 q 276 212 253 239 q 329 169 299 185 q 394 154 360 154 z "},"·":{"ha":297,"x_min":42,"x_max":256,"o":"m 254 493 q 222 417 253 449 q 147 388 192 386 q 72 419 103 388 q 43 493 42 450 q 74 569 43 538 q 149 600 104 600 q 224 568 193 599 q 254 493 256 538 z "}}}
